<svg width="344" height="274" viewBox="0 0 344 274" fill="none" xmlns="http://www.w3.org/2000/svg">
<path d="M9.60311 32.341V7.84808H0V2.15607H26.1513V7.84808H16.5482V32.341H9.60311Z" fill="white"/>
<path d="M35.3019 12.2033C36.931 9.96102 39.6748 8.79675 43.2331 8.79675V15.0062C42.6758 14.9631 42.247 14.92 41.7326 14.92C38.0457 14.92 35.602 16.9467 35.602 21.3882V32.341H28.9142V9.14172H35.3019V12.2033Z" fill="white"/>
<path d="M56.3871 8.79675C63.4179 8.79675 67.4907 12.074 67.4907 19.1027V32.341H61.2315V29.4519C59.9883 31.5648 57.5875 32.686 54.2007 32.686C48.7989 32.686 45.5836 29.6675 45.5836 25.6572C45.5836 21.5607 48.456 18.7147 55.4868 18.7147H60.8028C60.8028 15.8255 59.088 14.1438 55.4868 14.1438C53.0432 14.1438 50.5138 14.9631 48.8418 16.2999L46.441 11.5996C48.9704 9.78854 52.7002 8.79675 56.3871 8.79675ZM55.8727 28.1582C58.1019 28.1582 60.0311 27.1233 60.8028 25.0104V22.6387H56.2156C53.086 22.6387 52.1 23.803 52.1 25.3553C52.1 27.0371 53.5147 28.1582 55.8727 28.1582Z" fill="white"/>
<path d="M87.5624 8.79675C93.007 8.79675 97.1226 11.9877 97.1226 19.0596V32.341H90.4347V20.0945C90.4347 16.343 88.7199 14.6181 85.7618 14.6181C82.5465 14.6181 80.2314 16.6017 80.2314 20.8707V32.341H73.5435V9.14172H79.9313V11.8584C81.7319 9.87478 84.4328 8.79675 87.5624 8.79675Z" fill="white"/>
<path d="M110.944 32.686C107.043 32.686 103.099 31.6079 100.956 30.1849L103.185 25.3553C105.243 26.6921 108.372 27.5976 111.202 27.5976C114.288 27.5976 115.446 26.7783 115.446 25.4847C115.446 21.69 101.513 25.5709 101.513 16.2999C101.513 11.9015 105.457 8.79675 112.188 8.79675C115.36 8.79675 118.876 9.52981 121.062 10.8235L118.833 15.6099C116.561 14.3163 114.288 13.8851 112.188 13.8851C109.187 13.8851 107.901 14.8337 107.901 16.0411C107.901 20.0083 121.834 16.1705 121.834 25.3122C121.834 29.6243 117.847 32.686 110.944 32.686Z" fill="white"/>
<path d="M133.291 8.66739V9.65918H139.207V14.8337H133.462V32.341H126.775V14.8337H123.216V9.65918H126.775V8.62426C126.775 3.40659 129.947 0 135.692 0C137.578 0 139.55 0.388092 140.793 1.25052L139.036 6.12323C138.307 5.60577 137.364 5.30392 136.335 5.30392C134.363 5.30392 133.291 6.38195 133.291 8.66739Z" fill="white"/>
<path d="M153.221 32.686C145.89 32.686 140.531 27.727 140.531 20.7414C140.531 13.7557 145.89 8.79675 153.221 8.79675C160.552 8.79675 165.868 13.7557 165.868 20.7414C165.868 27.727 160.552 32.686 153.221 32.686ZM153.221 27.1664C156.565 27.1664 159.094 24.7516 159.094 20.7414C159.094 16.7311 156.565 14.3163 153.221 14.3163C149.877 14.3163 147.305 16.7311 147.305 20.7414C147.305 24.7516 149.877 27.1664 153.221 27.1664Z" fill="white"/>
<path d="M176.726 12.2033C178.355 9.96102 181.099 8.79675 184.657 8.79675V15.0062C184.1 14.9631 183.671 14.92 183.157 14.92C179.47 14.92 177.026 16.9467 177.026 21.3882V32.341H170.338V9.14172H176.726V12.2033Z" fill="white"/>
<path d="M218.172 8.79675C223.659 8.79675 227.604 11.9877 227.604 19.0596V32.341H220.916V20.0945C220.916 16.343 219.244 14.6181 216.543 14.6181C213.542 14.6181 211.441 16.5586 211.441 20.6982V32.341H204.753V20.0945C204.753 16.343 203.167 14.6181 200.38 14.6181C197.422 14.6181 195.322 16.5586 195.322 20.6982V32.341H188.634V9.14172H195.022V11.8152C196.736 9.83166 199.309 8.79675 202.267 8.79675C205.482 8.79675 208.226 10.0473 209.855 12.5914C211.698 10.2198 214.699 8.79675 218.172 8.79675Z" fill="white"/>
<path d="M272.276 2.15607L260.616 21.6469V32.341H253.67V21.5607L242.052 2.15607H249.426L257.443 15.5668L265.46 2.15607H272.276Z" fill="white"/>
<path d="M283.132 32.686C275.801 32.686 270.442 27.727 270.442 20.7414C270.442 13.7557 275.801 8.79675 283.132 8.79675C290.463 8.79675 295.779 13.7557 295.779 20.7414C295.779 27.727 290.463 32.686 283.132 32.686ZM283.132 27.1664C286.476 27.1664 289.005 24.7516 289.005 20.7414C289.005 16.7311 286.476 14.3163 283.132 14.3163C279.788 14.3163 277.216 16.7311 277.216 20.7414C277.216 24.7516 279.788 27.1664 283.132 27.1664Z" fill="white"/>
<path d="M316.797 9.14172H323.485V32.341H317.14V29.5812C315.383 31.6079 312.81 32.686 309.981 32.686C304.193 32.686 300.121 29.4087 300.121 22.2506V9.14172H306.808V21.2588C306.808 25.1397 308.523 26.8646 311.481 26.8646C314.568 26.8646 316.797 24.881 316.797 20.612V9.14172Z" fill="white"/>
<path d="M336.069 12.2033C337.698 9.96102 340.442 8.79675 344 8.79675V15.0062C343.443 14.9631 343.014 14.92 342.5 14.92C338.813 14.92 336.369 16.9467 336.369 21.3882V32.341H329.681V9.14172H336.069V12.2033Z" fill="white"/>
<path d="M134.823 148.298C132.337 148.298 130.665 146.659 130.665 144.546C130.665 142.433 132.337 140.795 134.823 140.795C137.31 140.795 138.982 142.347 138.982 144.417C138.982 146.659 137.31 148.298 134.823 148.298ZM131.479 174.731V151.532H138.167V174.731H131.479Z" fill="white"/>
<path d="M158.393 151.187C163.838 151.187 167.953 154.378 167.953 161.45V174.731H161.265V162.485C161.265 158.733 159.551 157.008 156.592 157.008C153.377 157.008 151.062 158.992 151.062 163.261V174.731H144.374V151.532H150.762V154.249C152.563 152.265 155.263 151.187 158.393 151.187Z" fill="white"/>
<path d="M187.091 168.867L188.892 173.61C187.52 174.602 185.505 175.076 183.447 175.076C178.003 175.076 174.83 172.273 174.83 166.754V157.224H171.272V152.049H174.83V146.4H181.518V152.049H187.263V157.224H181.518V166.667C181.518 168.651 182.59 169.729 184.39 169.729C185.376 169.729 186.362 169.427 187.091 168.867Z" fill="white"/>
<path d="M202.909 175.076C195.578 175.076 190.219 170.117 190.219 163.132C190.219 156.146 195.578 151.187 202.909 151.187C210.24 151.187 215.556 156.146 215.556 163.132C215.556 170.117 210.24 175.076 202.909 175.076ZM202.909 169.557C206.253 169.557 208.783 167.142 208.783 163.132C208.783 159.121 206.253 156.706 202.909 156.706C199.565 156.706 196.993 159.121 196.993 163.132C196.993 167.142 199.565 169.557 202.909 169.557Z" fill="white"/>
<path d="M61.2463 59.2918C61.2463 51.8495 67.2444 45.8164 74.6435 45.8164H271.136C278.535 45.8164 284.533 51.8495 284.533 59.2918V111.846C284.533 119.288 278.535 125.321 271.136 125.321H74.6435C67.2444 125.321 61.2463 119.288 61.2463 111.846V59.2918Z" fill="#65FE08"/>
<path d="M112.174 105.234C109.649 105.234 107.887 104.731 106.887 103.725C105.886 102.766 105.386 101.497 105.386 99.9157C105.386 98.4304 105.72 96.7534 106.386 94.8849C107.387 92.058 108.53 89.1353 109.816 86.1169C111.15 83.0505 112.412 80.0559 113.603 77.1332C114.651 74.6418 115.699 72.0785 116.747 69.4433C117.795 66.8081 118.509 64.5322 118.89 62.6157C116.795 62.6157 114.651 62.7834 112.46 63.1188C110.316 63.4542 108.316 63.9573 106.458 64.6281C104.6 65.2988 103.1 66.1613 101.956 67.2153C100.861 68.2694 100.313 69.5391 100.313 71.0244C100.313 71.9827 100.575 72.7732 101.099 73.3961C101.671 73.971 102.29 74.4262 102.957 74.7616C103.624 75.097 104.148 75.3844 104.529 75.624C104.91 75.8636 105.1 76.0552 105.1 76.199C105.1 76.2948 105.005 76.3427 104.814 76.3427C104.433 76.3427 103.743 76.1031 102.742 75.624C101.79 75.097 100.908 74.3783 100.099 73.4679C99.2889 72.5576 98.8602 71.5035 98.8125 70.3057C98.8125 70.2099 98.7649 70.0661 98.6696 69.8745C98.5744 69.6828 98.5267 69.5152 98.5267 69.3714C98.4315 67.5507 98.884 66.0175 99.8843 64.7718C100.932 63.5261 102.338 62.5199 104.1 61.7533C105.862 60.9388 107.815 60.3638 109.959 60.0285C112.103 59.6452 114.27 59.4535 116.461 59.4535C116.89 59.4535 117.319 59.4535 117.747 59.4535C118.176 59.4535 118.605 59.4775 119.033 59.5254C118.986 59.19 118.867 58.9025 118.676 58.663C118.581 58.4713 118.533 58.3276 118.533 58.2317C118.533 57.8484 118.748 57.6568 119.176 57.6568C119.653 57.6568 120.105 58.0161 120.534 58.7348C120.724 59.0702 120.843 59.4056 120.891 59.741C123.606 60.0285 125.869 60.6274 127.679 61.5377C128.06 61.6814 128.489 61.9929 128.965 62.472C129.442 62.9032 129.68 63.2626 129.68 63.55C129.68 63.7896 129.489 63.9094 129.108 63.9094C128.918 63.9094 128.679 63.8854 128.394 63.8375C128.108 63.7896 127.774 63.6938 127.393 63.55C125.678 63.023 123.559 62.7116 121.034 62.6157C120.939 64.676 120.534 67.1195 119.819 69.9464C119.105 72.7253 118.176 75.4084 117.033 77.9957C115.556 81.4454 114.127 84.9909 112.746 88.6323C111.412 92.2257 110.602 95.5556 110.316 98.622C110.269 98.8137 110.245 99.0053 110.245 99.197C110.245 99.3886 110.245 99.5803 110.245 99.7719C110.245 101.066 110.507 102 111.031 102.575C111.555 103.15 112.245 103.437 113.103 103.437C114.437 103.437 116.032 102.91 117.89 101.856C119.748 100.85 121.558 99.6761 123.32 98.3346C126.56 95.891 129.322 93.2558 131.609 90.429C133.943 87.6021 136.182 84.4878 138.325 81.086C140.278 77.9717 142.136 74.8574 143.899 71.7431C145.709 68.6288 147.781 65.6821 150.115 62.9032C150.686 62.1366 151.472 61.3461 152.473 60.5315C153.473 59.717 154.569 59.0223 155.76 58.4473C156.998 57.8724 158.213 57.5849 159.404 57.5849C159.785 57.5849 160.19 57.6328 160.618 57.7287C161.047 57.8245 161.428 57.9922 161.761 58.2317C162.095 58.4234 162.19 58.615 162.047 58.8067C161.952 58.9504 161.857 59.0223 161.761 59.0223C161.619 59.0223 161.476 59.0223 161.333 59.0223C161.19 58.9744 161.071 58.9504 160.976 58.9504C159.928 58.9504 158.665 59.6452 157.189 61.0346C155.76 62.4241 154.14 64.2927 152.33 66.6404C150.52 68.9402 148.543 71.5275 146.399 74.4022C144.303 77.277 142.088 80.2236 139.754 83.2421C137.325 86.4043 134.8 89.4707 132.18 92.4413C129.608 95.364 126.988 97.8794 124.321 99.9875C122.273 101.617 120.224 102.886 118.176 103.797C116.175 104.755 114.175 105.234 112.174 105.234Z" fill="#080808"/>
<path d="M155.065 76.0552C154.446 76.0552 153.803 76.0073 153.136 75.9115C152.469 75.7677 152.136 75.3126 152.136 74.546C152.136 74.4022 152.445 74.0668 153.064 73.5398C153.731 73.0128 154.398 72.4857 155.065 71.9587C155.78 71.3837 156.208 71.0484 156.351 70.9525C157.161 70.2818 157.661 69.9464 157.852 69.9464C158.09 69.9464 158.09 70.2578 157.852 70.8807C157.614 71.5035 157.494 72.0545 157.494 72.5336C157.494 72.7732 157.352 73.1805 157.066 73.7554C156.78 74.3304 156.447 74.8574 156.065 75.3365C155.684 75.8157 155.351 76.0552 155.065 76.0552ZM147.277 101.784C146.419 101.784 145.633 101.593 144.919 101.209C144.252 100.826 143.752 100.107 143.419 99.0532C143.371 98.9095 143.323 98.7658 143.276 98.622C143.276 98.4783 143.276 98.3106 143.276 98.1189C143.276 97.1607 143.49 95.9629 143.919 94.5255C144.347 93.0881 144.871 91.6987 145.491 90.3571C145.205 90.7404 144.871 91.2195 144.49 91.7945C144.109 92.3215 143.561 93.0163 142.847 93.8787C142.656 94.0703 142.442 94.1662 142.204 94.1662C141.87 94.1662 141.704 93.9745 141.704 93.5912C141.704 93.3037 141.799 93.0642 141.989 92.8725C143.228 91.2914 144.324 89.878 145.276 88.6323C146.277 87.3865 147.015 86.3325 147.491 85.47C147.491 85.4221 147.467 85.3982 147.42 85.3982C147.42 85.3503 147.42 85.3023 147.42 85.2544C147.42 85.1107 147.491 84.8951 147.634 84.6076C148.015 83.4577 148.396 82.4995 148.777 81.7329C149.206 80.9183 149.659 80.4632 150.135 80.3673C150.23 80.3673 150.326 80.3673 150.421 80.3673C150.516 80.3194 150.611 80.2955 150.707 80.2955C151.231 80.2955 151.707 80.4153 152.136 80.6548C152.564 80.8944 152.779 81.2537 152.779 81.7329C152.779 82.1641 152.612 82.6911 152.279 83.314C151.993 83.9368 151.612 84.7034 151.135 85.6138C150.087 87.8177 149.135 89.8301 148.277 91.6508C147.467 93.4235 147.015 94.8849 146.92 96.0348C146.872 96.2264 146.848 96.4181 146.848 96.6097C146.848 96.7534 146.848 96.9211 146.848 97.1128C146.848 99.0293 147.467 99.9875 148.706 99.9875C149.468 99.9875 150.445 99.5803 151.635 98.7658C152.826 97.9034 154.041 96.8732 155.279 95.6754C156.518 94.4297 157.637 93.2558 158.638 92.1538C159.686 91.0039 160.4 90.1415 160.781 89.5666C160.924 89.4228 161.067 89.351 161.21 89.351C161.401 89.351 161.543 89.4228 161.639 89.5666C161.782 89.7103 161.805 89.9019 161.71 90.1415C161.281 90.956 160.543 91.9861 159.495 93.2319C158.495 94.4297 157.352 95.6515 156.065 96.8972C154.827 98.095 153.612 99.1251 152.421 99.9875C151.802 100.467 151.016 100.874 150.064 101.209C149.158 101.593 148.23 101.784 147.277 101.784Z" fill="#080808"/>
<path d="M160.68 104.659C160.156 104.659 159.632 104.587 159.108 104.443C158.584 104.3 158.203 104.012 157.965 103.581C157.775 103.198 157.798 102.719 158.036 102.144C158.275 101.617 158.608 101.137 159.037 100.706C159.418 100.323 159.894 99.9396 160.466 99.5563C161.085 99.173 161.728 98.8616 162.395 98.622H162.538C162.776 98.622 162.895 98.7179 162.895 98.9095C162.895 99.0533 162.8 99.197 162.609 99.3407C161.752 99.7719 161.085 100.299 160.609 100.922C160.275 101.305 160.109 101.712 160.109 102.144C160.109 102.91 160.561 103.294 161.466 103.294C162.467 103.294 163.538 102.982 164.682 102.359C165.872 101.784 166.992 101.018 168.04 100.059C169.135 99.0533 170.017 97.9992 170.683 96.8972C171.35 95.7952 171.684 94.7411 171.684 93.735C171.684 93.0642 171.327 92.4653 170.612 91.9382C169.897 91.3633 169.112 90.8602 168.254 90.429C167.397 89.9499 166.754 89.5666 166.325 89.2791C165.801 88.8958 165.325 88.5125 164.896 88.1292C164.467 87.698 164.134 87.2428 163.896 86.7637C163.514 87.4344 163.014 88.249 162.395 89.2072C161.823 90.1176 161.133 91.0758 160.323 92.082C160.037 92.3694 159.751 92.5132 159.466 92.5132C159.18 92.5132 159.037 92.3934 159.037 92.1538C159.037 92.0101 159.156 91.7705 159.394 91.4352C160.68 89.9019 161.633 88.4885 162.252 87.1949C162.871 85.9013 163.3 84.919 163.538 84.2483C163.729 82.8588 164.372 81.5412 165.467 80.2955C166.563 79.0498 167.897 77.9717 169.469 77.0614C171.041 76.1031 172.636 75.3605 174.256 74.8335C175.923 74.3064 177.4 74.0429 178.686 74.0429C179.972 74.0429 181.115 74.2824 182.116 74.7616C183.116 75.2407 183.616 76.0073 183.616 77.0614C183.616 77.6363 183.449 78.2592 183.116 78.93C182.687 79.8403 181.973 80.6548 180.973 81.3735C180.925 81.4214 180.853 81.4454 180.758 81.4454C180.377 81.4454 180.187 81.2777 180.187 80.9423C180.187 80.7027 180.306 80.4632 180.544 80.2236C180.925 79.8882 181.234 79.481 181.473 79.0018C181.711 78.5227 181.83 78.0676 181.83 77.6363C181.83 76.7739 181.33 76.3427 180.329 76.3427C179.615 76.3427 178.781 76.4864 177.829 76.7739C176.876 77.0135 175.947 77.3249 175.042 77.7082C174.185 78.0436 173.47 78.355 172.898 78.6425C171.708 79.2174 170.612 79.9361 169.612 80.7986C168.611 81.6131 167.659 82.6432 166.754 83.8889C166.134 84.7034 165.825 85.47 165.825 86.1887C165.825 87.0512 166.396 87.8417 167.54 88.5604C168.73 89.2312 169.897 89.878 171.041 90.5009C172.232 91.1237 173.232 91.7945 174.042 92.5132C174.851 93.2319 175.256 94.0943 175.256 95.1005C175.256 96.2025 174.566 97.5201 173.184 99.0532C172.327 100.011 171.16 100.922 169.683 101.784C168.254 102.647 166.73 103.341 165.11 103.868C163.491 104.396 162.014 104.659 160.68 104.659Z" fill="#080808"/>
<path d="M192.326 76.0552C191.707 76.0552 191.064 76.0073 190.397 75.9115C189.73 75.7677 189.397 75.3126 189.397 74.546C189.397 74.4022 189.706 74.0668 190.325 73.5398C190.992 73.0128 191.659 72.4857 192.326 71.9587C193.041 71.3837 193.469 71.0484 193.612 70.9525C194.422 70.2818 194.922 69.9464 195.113 69.9464C195.351 69.9464 195.351 70.2578 195.113 70.8807C194.875 71.5035 194.755 72.0545 194.755 72.5336C194.755 72.7732 194.613 73.1805 194.327 73.7554C194.041 74.3304 193.707 74.8574 193.326 75.3365C192.945 75.8157 192.612 76.0552 192.326 76.0552ZM184.538 101.784C183.68 101.784 182.894 101.593 182.18 101.209C181.513 100.826 181.013 100.107 180.679 99.0532C180.632 98.9095 180.584 98.7658 180.537 98.622C180.537 98.4783 180.537 98.3106 180.537 98.1189C180.537 97.1607 180.751 95.9629 181.18 94.5255C181.608 93.0881 182.132 91.6987 182.752 90.3571C182.466 90.7404 182.132 91.2195 181.751 91.7945C181.37 92.3215 180.822 93.0163 180.108 93.8787C179.917 94.0703 179.703 94.1662 179.465 94.1662C179.131 94.1662 178.965 93.9745 178.965 93.5912C178.965 93.3037 179.06 93.0642 179.25 92.8725C180.489 91.2914 181.584 89.878 182.537 88.6323C183.538 87.3865 184.276 86.3325 184.752 85.47C184.752 85.4221 184.728 85.3982 184.681 85.3982C184.681 85.3503 184.681 85.3023 184.681 85.2544C184.681 85.1107 184.752 84.8951 184.895 84.6076C185.276 83.4577 185.657 82.4995 186.038 81.7329C186.467 80.9183 186.92 80.4632 187.396 80.3673C187.491 80.3673 187.586 80.3673 187.682 80.3673C187.777 80.3194 187.872 80.2955 187.968 80.2955C188.491 80.2955 188.968 80.4153 189.397 80.6548C189.825 80.8944 190.04 81.2537 190.04 81.7329C190.04 82.1641 189.873 82.6911 189.539 83.314C189.254 83.9368 188.873 84.7034 188.396 85.6138C187.348 87.8177 186.396 89.8301 185.538 91.6508C184.728 93.4235 184.276 94.8849 184.181 96.0348C184.133 96.2264 184.109 96.4181 184.109 96.6097C184.109 96.7534 184.109 96.9211 184.109 97.1128C184.109 99.0293 184.728 99.9875 185.967 99.9875C186.729 99.9875 187.706 99.5803 188.896 98.7658C190.087 97.9034 191.302 96.8732 192.54 95.6754C193.779 94.4297 194.898 93.2558 195.899 92.1538C196.947 91.0039 197.661 90.1415 198.042 89.5666C198.185 89.4228 198.328 89.351 198.471 89.351C198.661 89.351 198.804 89.4228 198.9 89.5666C199.043 89.7103 199.066 89.9019 198.971 90.1415C198.542 90.956 197.804 91.9861 196.756 93.2319C195.756 94.4297 194.613 95.6515 193.326 96.8972C192.088 98.095 190.873 99.1251 189.682 99.9875C189.063 100.467 188.277 100.874 187.324 101.209C186.419 101.593 185.491 101.784 184.538 101.784Z" fill="#080808"/>
<path d="M202.728 101.856C201.395 101.856 200.228 101.545 199.227 100.922C197.56 99.9157 196.726 98.095 196.726 95.4598C196.726 94.3578 196.917 93.0881 197.298 91.6508C197.632 90.4529 198.227 89.1593 199.084 87.7698C199.942 86.3325 200.942 84.9669 202.085 83.6733C203.276 82.3797 204.562 81.3256 205.944 80.5111C207.325 79.6966 208.707 79.2893 210.088 79.2893C210.66 79.2893 211.16 79.3612 211.588 79.5049C212.16 79.6966 212.636 80.0559 213.017 80.5829C213.446 81.0621 213.661 81.6849 213.661 82.4515C213.661 83.2661 213.446 83.7212 213.017 83.8171C212.636 83.9129 212.446 83.8171 212.446 83.5296C212.446 83.4338 212.446 83.3379 212.446 83.2421C212.493 83.1463 212.517 83.0744 212.517 83.0265C212.517 82.6432 212.398 82.3078 212.16 82.0203C211.97 81.6849 211.588 81.5173 211.017 81.5173C210.255 81.5173 209.302 81.9245 208.159 82.739C207.063 83.5535 205.92 84.6555 204.729 86.045C203.586 87.3865 202.562 88.8718 201.657 90.5009C200.799 92.1299 200.228 93.7589 199.942 95.3879C199.894 95.6275 199.847 95.8671 199.799 96.1066C199.799 96.2983 199.799 96.5139 199.799 96.7534C199.799 97.8554 200.037 98.7897 200.513 99.5563C201.037 100.275 201.847 100.634 202.943 100.634C204.277 100.634 205.563 100.131 206.801 99.1251C208.04 98.071 209.135 96.8253 210.088 95.3879C211.088 93.9506 211.827 92.6809 212.303 91.5789C212.684 90.7165 212.946 89.9738 213.089 89.351C213.232 88.7281 213.303 88.2011 213.303 87.7698C213.303 87.3865 213.256 87.0511 213.16 86.7637C213.113 86.4762 213.041 86.2366 212.946 86.045C212.851 85.7575 212.803 85.5419 212.803 85.3982C212.803 85.0149 212.946 84.7034 213.232 84.4639C213.565 84.2243 213.899 84.1045 214.232 84.1045C214.518 84.1045 214.828 84.2004 215.161 84.392C215.542 84.4878 216.066 84.5597 216.733 84.6076C217.4 84.6555 218.114 84.6795 218.877 84.6795C219.686 84.6795 220.496 84.6555 221.306 84.6076C222.163 84.5597 222.902 84.4639 223.521 84.3201C223.616 84.2722 223.759 84.2483 223.95 84.2483C224.283 84.2483 224.45 84.3441 224.45 84.5357C224.45 84.7274 224.283 84.8951 223.95 85.0388C222.282 85.8054 220.782 86.2127 219.448 86.2606C218.162 86.3085 217.043 86.3325 216.09 86.3325C216.185 87.5303 215.923 88.8239 215.304 90.2134C214.685 91.5549 214.042 92.7527 213.375 93.8068C212.565 95.0046 211.636 96.2264 210.588 97.4721C209.54 98.7179 208.373 99.7719 207.087 100.634C205.801 101.449 204.348 101.856 202.728 101.856Z" fill="#080808"/>
<path d="M219.204 102C218.871 102 218.775 101.832 218.918 101.497C219.061 101.209 219.323 100.562 219.704 99.5563C220.085 98.5023 220.514 97.2565 220.99 95.8192C221.514 94.3818 222.038 92.8965 222.562 91.3633C223.086 89.8301 223.563 88.3927 223.991 87.0511C224.468 85.7096 224.849 84.6555 225.135 83.8889C225.23 83.6014 225.325 83.1942 225.42 82.6672C225.516 82.0922 225.706 81.5891 225.992 81.1579C226.326 80.6788 226.873 80.4392 227.635 80.4392C229.065 80.4392 229.779 80.7746 229.779 81.4454C229.779 81.6849 229.66 82.0922 229.422 82.6672C228.85 83.9608 228.231 85.4461 227.564 87.123C226.897 88.8 226.302 90.3811 225.778 91.8664C225.254 93.3517 224.849 94.5016 224.563 95.3161C225.039 94.6453 225.802 93.687 226.85 92.4413C227.945 91.1956 229.16 89.854 230.494 88.4167C231.827 86.9793 233.209 85.5898 234.638 84.2483C236.114 82.9067 237.472 81.8287 238.71 81.0142C239.997 80.1517 241.092 79.7205 241.997 79.7205C243.14 79.7205 243.712 80.3434 243.712 81.5891C243.712 82.0203 243.593 82.6672 243.355 83.5296C242.926 84.7274 242.378 85.9012 241.711 87.0511C241.045 88.1531 240.449 89.327 239.925 90.5727C239.02 92.8246 238.496 94.6453 238.353 96.0348C238.306 96.2264 238.282 96.4181 238.282 96.6097C238.282 96.7534 238.282 96.9211 238.282 97.1128C238.282 99.0293 238.925 99.9875 240.211 99.9875C240.925 99.9875 241.878 99.5563 243.069 98.6939C244.26 97.8315 245.475 96.8014 246.713 95.6035C247.999 94.4057 249.142 93.2558 250.143 92.1538C251.143 91.0039 251.834 90.1415 252.215 89.5666C252.358 89.4228 252.501 89.351 252.644 89.351C252.834 89.351 252.977 89.4228 253.072 89.5666C253.215 89.7103 253.239 89.9019 253.144 90.1415C252.715 90.956 251.977 91.9861 250.929 93.2319C249.928 94.4297 248.809 95.6515 247.57 96.8972C246.332 98.095 245.117 99.1251 243.926 99.9875C243.212 100.467 242.331 100.898 241.283 101.281C240.235 101.664 239.187 101.832 238.139 101.784C236.805 101.641 235.852 101.185 235.281 100.419C234.709 99.6042 234.423 98.646 234.423 97.544C234.423 96.2504 234.662 94.8849 235.138 93.4475C235.662 91.9622 236.233 90.5727 236.853 89.2791C237.472 87.9855 237.972 87.0032 238.353 86.3325C238.734 85.5659 238.925 84.967 238.925 84.5357C238.925 84.1524 238.758 83.9608 238.425 83.9608C238.091 83.9608 237.591 84.1764 236.924 84.6076C236.257 85.0388 235.352 85.7815 234.209 86.8355C233.161 87.7459 232.042 88.9437 230.851 90.429C229.66 91.8664 228.493 93.3517 227.35 94.8849C226.254 96.4181 225.278 97.7357 224.42 98.8376C223.61 99.9396 223.039 100.586 222.705 100.778C222.467 100.922 221.919 101.161 221.062 101.497C220.252 101.832 219.633 102 219.204 102Z" fill="#080808"/>
<path d="M61.2463 207.97C61.2463 200.528 67.2444 194.495 74.6435 194.495H271.136C278.535 194.495 284.533 200.528 284.533 207.97V260.525C284.533 267.967 278.535 274 271.136 274H74.6435C67.2444 274 61.2463 267.967 61.2463 260.525V207.97Z" fill="#65FE08"/>
<path d="M133.961 256.536C133.485 256.536 133.009 256.512 132.532 256.464C132.056 256.416 131.556 256.344 131.032 256.248C127.793 255.626 124.863 254.548 122.243 253.014C119.624 251.481 117.266 249.684 115.17 247.624C113.121 245.612 111.24 243.48 109.525 241.228C107.858 238.976 106.333 236.82 104.952 234.76C103.571 232.651 102.285 230.807 101.094 229.226C100.998 228.986 100.879 228.914 100.736 229.01C100.641 229.106 100.594 229.154 100.594 229.154C99.5456 231.166 98.5691 233.059 97.664 234.831C96.8066 236.556 96.1635 237.946 95.7348 239C95.3538 240.054 95.1632 240.797 95.1632 241.228C95.1632 241.899 95.4252 242.234 95.9492 242.234C96.6161 242.234 97.3306 241.779 98.0927 240.868C98.6167 240.246 99.0931 239.671 99.5218 239.144C99.9981 238.569 100.403 238.329 100.736 238.425C100.784 238.473 100.808 238.545 100.808 238.641C100.808 238.88 100.641 239.215 100.308 239.647C99.9743 240.03 99.7838 240.246 99.7361 240.294C99.4027 240.773 98.9501 241.419 98.3785 242.234C97.8546 243.048 97.2829 243.767 96.6637 244.39C96.0921 245.061 95.4728 245.396 94.806 245.396C94.7107 245.396 94.4249 245.348 93.9485 245.252C93.5198 245.157 93.0911 245.037 92.6624 244.893C92.2813 244.749 92.067 244.582 92.0193 244.39C91.9241 243.48 92.1384 242.21 92.6624 240.581C93.234 238.904 93.9962 237.059 94.9489 235.047C95.9015 233.035 96.8781 231.07 97.8784 229.154C97.1162 228.962 96.5684 228.794 96.235 228.651C95.7586 228.315 95.5205 227.86 95.5205 227.285C95.5205 226.806 95.711 226.375 96.0921 225.992C96.4732 225.608 97.0448 225.417 97.8069 225.417C98.0451 225.417 98.3309 225.465 98.6643 225.56C98.9978 225.656 99.2598 225.824 99.4503 226.063C100.26 224.626 100.975 223.309 101.594 222.111C102.261 220.913 102.737 219.979 103.023 219.308C103.309 218.781 103.499 218.35 103.595 218.014C103.69 217.631 103.737 217.343 103.737 217.152C103.737 216.864 103.69 216.625 103.595 216.433C103.69 215.858 104.023 215.092 104.595 214.133C105.214 213.175 105.976 212.217 106.881 211.258C107.786 210.3 108.763 209.51 109.811 208.887C110.859 208.216 111.835 207.881 112.74 207.881C113.026 207.881 113.455 207.976 114.026 208.168C114.646 208.312 115.217 208.551 115.741 208.887C116.313 209.222 116.67 209.701 116.813 210.324C116.861 210.468 116.885 210.612 116.885 210.755C116.885 210.899 116.837 210.971 116.742 210.971C116.646 210.971 116.503 210.947 116.313 210.899C116.17 210.803 116.051 210.755 115.956 210.755C114.622 210.755 113.121 211.57 111.454 213.199C109.835 214.78 108.167 216.816 106.453 219.308C104.785 221.799 103.213 224.387 101.737 227.07C101.975 227.118 102.237 227.189 102.523 227.285C102.856 227.333 103.237 227.357 103.666 227.357C103.856 227.357 104.023 227.357 104.166 227.357C104.357 227.357 104.547 227.333 104.738 227.285C107.786 226.95 110.883 226.351 114.026 225.489C117.218 224.626 120.195 223.5 122.958 222.111C125.721 220.721 128.007 219.092 129.817 217.224C131.484 215.451 132.318 213.63 132.318 211.762C132.318 210.372 131.794 209.078 130.746 207.881C129.698 206.683 128.055 205.773 125.816 205.15C124.482 204.766 122.958 204.479 121.243 204.287C119.576 204.096 117.766 204 115.813 204C112.764 204 109.62 204.263 106.381 204.79C103.19 205.317 100.189 206.132 97.3782 207.234C94.5678 208.288 92.2099 209.629 90.3045 211.258C88.3991 212.888 87.2559 214.828 86.8748 217.08C86.7319 218.23 86.9463 219.14 87.5179 219.811C88.0895 220.482 88.7802 221.009 89.59 221.392C90.4474 221.727 91.1143 222.039 91.5906 222.326C91.9241 222.614 92.0908 222.853 92.0908 223.045C92.0908 223.38 91.7812 223.5 91.1619 223.404C90.495 223.261 89.6614 222.925 88.6611 222.398C87.7084 221.871 86.851 221.152 86.0888 220.242C85.3743 219.284 85.0171 218.182 85.0171 216.936C85.0171 216.744 85.0171 216.553 85.0171 216.361C85.0647 216.17 85.1123 215.978 85.16 215.786C85.16 215.738 85.1362 215.595 85.0885 215.355C85.0885 215.068 85.0885 214.828 85.0885 214.636C85.3743 213.151 86.0888 211.762 87.2321 210.468C88.4229 209.126 89.7567 207.953 91.2334 206.946C92.7577 205.892 94.1629 205.054 95.449 204.431C97.6878 203.329 100.379 202.467 103.523 201.844C106.667 201.173 109.954 200.838 113.383 200.838C115.479 200.838 117.551 200.981 119.6 201.269C121.696 201.556 123.72 202.011 125.673 202.634C128.388 203.545 130.484 204.958 131.961 206.874C133.485 208.743 134.176 210.707 134.033 212.768C133.89 214.732 133.199 216.505 131.961 218.086C130.77 219.667 129.222 221.057 127.316 222.254C125.459 223.404 123.387 224.41 121.1 225.273C118.861 226.087 116.599 226.758 114.312 227.285C112.455 227.669 110.502 227.98 108.453 228.22C106.405 228.459 104.476 228.627 102.666 228.723C104.714 231.262 106.738 233.825 108.739 236.413C110.787 238.952 112.955 241.348 115.241 243.599C117.575 245.851 120.124 247.768 122.886 249.349C125.649 250.978 128.769 252.128 132.247 252.799C132.961 252.942 133.699 253.014 134.462 253.014C135.7 253.014 136.915 252.823 138.106 252.439C139.344 252.056 140.368 251.457 141.178 250.643C141.988 249.828 142.393 248.75 142.393 247.409C142.393 247.169 142.369 246.929 142.321 246.69C142.321 246.45 142.298 246.211 142.25 245.971C142.25 245.875 142.226 245.803 142.178 245.756C142.178 245.708 142.178 245.66 142.178 245.612C142.178 245.181 142.345 244.965 142.679 244.965C143.155 244.965 143.465 245.324 143.607 246.043C143.75 246.762 143.822 247.432 143.822 248.055C143.822 248.774 143.75 249.445 143.607 250.068C143.512 250.691 143.369 251.265 143.179 251.793C142.75 253.134 141.654 254.26 139.892 255.17C138.177 256.081 136.2 256.536 133.961 256.536Z" fill="#080808"/>
<path d="M130.538 244.534C128.394 244.534 126.537 244.031 124.965 243.025C123.393 242.018 122.607 240.485 122.607 238.425C122.607 237.323 122.94 235.981 123.607 234.4C124.083 233.298 124.965 232.029 126.251 230.591C127.537 229.154 129.037 227.764 130.752 226.423C132.467 225.033 134.206 223.907 135.968 223.045C137.731 222.135 139.326 221.679 140.756 221.679C141.28 221.679 141.756 221.751 142.185 221.895C142.994 222.183 143.542 222.638 143.828 223.261C144.161 223.883 144.328 224.53 144.328 225.201C144.328 225.824 144.233 226.423 144.042 226.998C143.852 227.573 143.614 228.076 143.328 228.507C142.47 229.801 141.232 230.951 139.612 231.957C138.04 232.963 136.421 233.753 134.754 234.328C133.134 234.903 131.8 235.239 130.752 235.335H130.609C129.99 235.335 129.681 235.143 129.681 234.76C129.681 234.52 129.871 234.4 130.252 234.4C131.395 234.304 132.824 233.777 134.539 232.819C136.302 231.813 137.85 230.783 139.184 229.729C139.755 229.25 140.422 228.579 141.184 227.716C141.994 226.854 142.399 226.016 142.399 225.201C142.399 224.339 141.994 223.907 141.184 223.907C140.756 223.907 140.303 224.003 139.827 224.195C139.398 224.387 139.041 224.53 138.755 224.626C137.373 225.297 135.849 226.351 134.182 227.788C132.515 229.178 130.99 230.759 129.609 232.532C128.275 234.257 127.346 236.005 126.822 237.778C126.68 238.161 126.584 238.545 126.537 238.928C126.489 239.263 126.465 239.599 126.465 239.934C126.465 241.084 126.822 241.899 127.537 242.378C128.299 242.857 129.204 243.096 130.252 243.096C131.824 243.096 133.444 242.761 135.111 242.09C136.778 241.372 138.398 240.461 139.97 239.359C141.542 238.257 142.971 237.083 144.257 235.838C145.59 234.544 146.71 233.298 147.615 232.1C147.758 231.909 147.925 231.813 148.115 231.813C148.306 231.765 148.425 231.789 148.472 231.885C148.663 231.933 148.758 232.077 148.758 232.316C148.758 232.508 148.71 232.699 148.615 232.891C147.281 234.76 145.662 236.58 143.757 238.353C141.899 240.126 139.827 241.611 137.54 242.809C135.301 243.959 132.967 244.534 130.538 244.534Z" fill="#080808"/>
<path d="M166.788 244.174C165.978 244.174 165.216 243.983 164.501 243.599C163.835 243.216 163.334 242.497 163.001 241.443C162.858 241.012 162.787 240.413 162.787 239.647C162.787 238.593 162.93 237.419 163.215 236.125C163.501 234.831 163.811 233.729 164.144 232.819C163.906 232.915 163.454 233.346 162.787 234.113C162.167 234.831 161.381 235.718 160.429 236.772C159.524 237.778 158.5 238.808 157.356 239.862C156.261 240.868 155.117 241.707 153.927 242.378C152.736 243.048 151.569 243.384 150.426 243.384C149.663 243.384 148.854 243.168 147.996 242.737C147.139 242.258 146.448 241.659 145.924 240.94C145.21 239.982 144.852 239 144.852 237.994C144.852 236.7 145.281 235.359 146.138 233.969C147.043 232.58 148.187 231.238 149.568 229.944C150.997 228.603 152.498 227.405 154.07 226.351C155.689 225.249 157.213 224.339 158.642 223.62C160.119 222.853 161.31 222.35 162.215 222.111C163.168 221.823 164.24 221.679 165.43 221.679C166.097 221.679 166.788 221.775 167.502 221.967C168.217 222.111 168.812 222.374 169.289 222.758C169.67 222.949 169.979 223.213 170.218 223.548C170.456 223.883 170.575 224.243 170.575 224.626C170.575 225.009 170.408 225.129 170.075 224.985C169.694 224.41 169.17 224.051 168.503 223.907C167.884 223.716 167.24 223.62 166.574 223.62C164.668 223.62 162.572 224.243 160.286 225.489C157.999 226.734 155.951 228.196 154.141 229.873C153.569 230.352 152.783 231.19 151.783 232.388C150.83 233.538 149.949 234.808 149.139 236.197C148.33 237.586 147.925 238.856 147.925 240.006C147.925 240.629 148.091 241.18 148.425 241.659C148.615 241.994 148.925 242.162 149.354 242.162C150.021 242.162 150.902 241.803 151.997 241.084C153.141 240.365 154.308 239.503 155.499 238.497C156.689 237.443 157.761 236.437 158.714 235.478C159.714 234.52 160.429 233.825 160.857 233.394C161.096 233.155 161.548 232.675 162.215 231.957C162.93 231.19 163.692 230.376 164.501 229.513C165.311 228.651 166.026 227.908 166.645 227.285C167.312 226.662 167.741 226.351 167.931 226.351C168.169 226.351 168.55 226.423 169.074 226.567C169.646 226.662 170.122 226.83 170.503 227.07C170.885 227.309 170.956 227.621 170.718 228.004C169.479 229.825 168.479 231.741 167.717 233.753C167.002 235.718 166.574 237.275 166.431 238.425C166.383 238.617 166.359 238.808 166.359 239C166.359 239.144 166.359 239.311 166.359 239.503C166.359 241.419 167.026 242.378 168.36 242.378C169.074 242.378 170.027 241.947 171.218 241.084C172.409 240.222 173.623 239.192 174.862 237.994C176.1 236.796 177.22 235.646 178.22 234.544C179.268 233.394 179.983 232.532 180.364 231.957C180.507 231.813 180.65 231.741 180.792 231.741C180.983 231.741 181.15 231.837 181.293 232.029C181.436 232.172 181.436 232.364 181.293 232.604C180.769 233.466 180.007 234.496 179.006 235.694C178.006 236.892 176.886 238.09 175.648 239.287C174.409 240.485 173.195 241.515 172.004 242.378C171.385 242.857 170.599 243.264 169.646 243.599C168.693 243.983 167.741 244.174 166.788 244.174Z" fill="#080808"/>
<path d="M183.802 244.174C181.802 244.174 180.397 243.671 179.587 242.665C178.825 241.659 178.444 240.413 178.444 238.928C178.444 237.539 178.753 235.79 179.372 233.682C180.039 231.573 180.897 229.298 181.945 226.854C182.993 224.41 184.112 221.991 185.303 219.595C186.541 217.152 187.756 214.924 188.947 212.911C190.185 210.851 191.257 209.198 192.162 207.953C193.067 206.755 194.044 205.557 195.092 204.359C196.14 203.161 197.307 202.155 198.593 201.341C199.879 200.526 201.332 200.119 202.951 200.119C204.047 200.119 204.976 200.43 205.738 201.053C206.548 201.628 206.953 202.514 206.953 203.712C206.953 204.191 206.857 204.742 206.667 205.365C206.524 205.988 206.262 206.635 205.881 207.306C202.975 212.384 199.498 217.08 195.449 221.392C191.448 225.704 187.208 229.705 182.731 233.394C182.54 234.113 182.35 234.76 182.159 235.335C182.016 235.91 181.897 236.365 181.802 236.7C181.754 236.94 181.73 237.203 181.73 237.491C181.73 237.73 181.73 237.97 181.73 238.209C181.73 239.359 181.921 240.365 182.302 241.228C182.683 242.09 183.326 242.521 184.231 242.521C185.089 242.521 186.136 242.114 187.375 241.3C188.661 240.437 189.947 239.407 191.233 238.209C192.519 236.964 193.687 235.766 194.734 234.616C195.782 233.466 196.521 232.58 196.949 231.957C197.092 231.813 197.235 231.741 197.378 231.741C197.569 231.741 197.712 231.837 197.807 232.029C197.95 232.22 197.95 232.46 197.807 232.747C197.331 233.562 196.568 234.568 195.52 235.766C194.473 236.964 193.305 238.185 192.019 239.431C190.733 240.629 189.495 241.683 188.304 242.593C186.827 243.647 185.327 244.174 183.802 244.174ZM183.731 230.519C185.541 229.274 187.423 227.669 189.376 225.704C191.329 223.692 193.234 221.512 195.092 219.164C196.997 216.816 198.712 214.493 200.236 212.193C201.808 209.893 203.071 207.809 204.023 205.94C204.309 205.413 204.5 204.958 204.595 204.575C204.738 204.143 204.809 203.76 204.809 203.425C204.809 202.514 204.428 202.059 203.666 202.059C202.999 202.059 202.165 202.419 201.165 203.137C198.593 205.15 196.211 207.737 194.02 210.899C191.829 214.013 189.876 217.295 188.161 220.745C186.446 224.195 184.969 227.453 183.731 230.519Z" fill="#080808"/>
<path d="M207.265 218.445C206.646 218.445 206.003 218.397 205.336 218.302C204.669 218.158 204.336 217.703 204.336 216.936C204.336 216.792 204.645 216.457 205.265 215.93C205.932 215.403 206.598 214.876 207.265 214.349C207.98 213.774 208.409 213.439 208.551 213.343C209.361 212.672 209.861 212.337 210.052 212.337C210.29 212.337 210.29 212.648 210.052 213.271C209.814 213.894 209.695 214.445 209.695 214.924C209.695 215.163 209.552 215.571 209.266 216.146C208.98 216.721 208.647 217.248 208.266 217.727C207.885 218.206 207.551 218.445 207.265 218.445ZM199.477 244.174C198.62 244.174 197.834 243.983 197.119 243.599C196.452 243.216 195.952 242.497 195.619 241.443C195.571 241.3 195.523 241.156 195.476 241.012C195.476 240.868 195.476 240.701 195.476 240.509C195.476 239.551 195.69 238.353 196.119 236.916C196.548 235.478 197.072 234.089 197.691 232.747C197.405 233.131 197.072 233.61 196.69 234.185C196.309 234.712 195.762 235.406 195.047 236.269C194.857 236.461 194.642 236.556 194.404 236.556C194.071 236.556 193.904 236.365 193.904 235.981C193.904 235.694 193.999 235.454 194.19 235.263C195.428 233.682 196.524 232.268 197.476 231.022C198.477 229.777 199.215 228.723 199.691 227.86C199.691 227.812 199.668 227.788 199.62 227.788C199.62 227.74 199.62 227.693 199.62 227.645C199.62 227.501 199.691 227.285 199.834 226.998C200.215 225.848 200.596 224.89 200.978 224.123C201.406 223.309 201.859 222.853 202.335 222.758C202.43 222.758 202.526 222.758 202.621 222.758C202.716 222.71 202.812 222.686 202.907 222.686C203.431 222.686 203.907 222.805 204.336 223.045C204.765 223.285 204.979 223.644 204.979 224.123C204.979 224.554 204.812 225.081 204.479 225.704C204.193 226.327 203.812 227.094 203.335 228.004C202.288 230.208 201.335 232.22 200.477 234.041C199.668 235.814 199.215 237.275 199.12 238.425C199.072 238.617 199.048 238.808 199.048 239C199.048 239.144 199.048 239.311 199.048 239.503C199.048 241.419 199.668 242.378 200.906 242.378C201.668 242.378 202.645 241.97 203.836 241.156C205.027 240.294 206.241 239.263 207.48 238.066C208.718 236.82 209.838 235.646 210.838 234.544C211.886 233.394 212.6 232.532 212.981 231.957C213.124 231.813 213.267 231.741 213.41 231.741C213.601 231.741 213.744 231.813 213.839 231.957C213.982 232.1 214.006 232.292 213.91 232.532C213.482 233.346 212.743 234.376 211.695 235.622C210.695 236.82 209.552 238.042 208.266 239.287C207.027 240.485 205.812 241.515 204.622 242.378C204.002 242.857 203.216 243.264 202.264 243.599C201.359 243.983 200.43 244.174 199.477 244.174Z" fill="#080808"/>
<path d="M215.596 244.174C214.738 244.174 213.952 243.983 213.238 243.599C212.571 243.216 212.071 242.497 211.737 241.443C211.69 241.3 211.642 241.156 211.594 241.012C211.594 240.868 211.594 240.701 211.594 240.509C211.594 239.551 211.809 238.353 212.237 236.916C212.666 235.478 213.19 234.089 213.809 232.747C213.523 233.131 213.19 233.61 212.809 234.185C212.428 234.712 211.88 235.406 211.166 236.269C210.975 236.461 210.761 236.556 210.523 236.556C210.189 236.556 210.022 236.365 210.022 235.981C210.022 235.694 210.118 235.454 210.308 235.263C211.547 233.682 212.642 232.268 213.595 231.022C214.595 229.777 215.334 228.723 215.81 227.86C215.81 227.764 215.953 227.477 216.239 226.998C216.524 226.471 216.906 225.752 217.382 224.842C217.001 224.89 216.667 224.938 216.382 224.985C216.143 224.985 215.929 224.985 215.738 224.985C215.405 224.985 215.119 224.842 214.881 224.554C214.643 224.267 214.619 223.907 214.81 223.476C215.048 222.805 215.572 222.422 216.382 222.326C217.191 222.23 217.906 222.159 218.525 222.111C218.573 222.015 218.668 221.967 218.811 221.967C219.383 220.913 219.93 219.883 220.454 218.877C220.978 217.87 221.407 217.032 221.74 216.361C222.122 215.69 222.312 215.331 222.312 215.283C223.265 213.75 223.884 212.744 224.17 212.265C224.456 211.738 224.837 211.426 225.313 211.33C225.837 211.282 226.385 211.306 226.956 211.402C227.576 211.498 227.981 211.714 228.171 212.049C228.314 212.241 228.385 212.48 228.385 212.768C228.385 213.199 228.29 213.63 228.1 214.061C227.909 214.445 227.719 214.756 227.528 214.996C227.337 215.331 227.076 215.571 226.742 215.714C226.456 215.81 226.194 216.098 225.956 216.577C225.48 217.487 224.956 218.469 224.384 219.523C223.813 220.577 223.217 221.584 222.598 222.542L223.455 222.47C224.598 222.374 225.67 222.254 226.671 222.111C227.719 221.967 228.909 221.919 230.243 221.967C230.481 221.967 230.72 222.015 230.958 222.111C231.243 222.159 231.386 222.254 231.386 222.398C231.386 222.59 230.767 222.853 229.529 223.189C229.052 223.38 228.004 223.596 226.385 223.836C224.813 224.027 223.193 224.219 221.526 224.41C221.05 225.321 220.621 226.087 220.24 226.71C219.859 227.285 219.597 227.716 219.454 228.004C218.406 230.208 217.453 232.22 216.596 234.041C215.786 235.814 215.334 237.275 215.238 238.425C215.191 238.617 215.167 238.808 215.167 239C215.167 239.144 215.167 239.311 215.167 239.503C215.167 241.419 215.786 242.378 217.025 242.378C217.787 242.378 218.763 241.97 219.954 241.156C221.145 240.294 222.36 239.263 223.598 238.066C224.837 236.82 225.956 235.646 226.956 234.544C228.004 233.394 228.719 232.532 229.1 231.957C229.243 231.813 229.386 231.741 229.529 231.741C229.719 231.741 229.862 231.813 229.957 231.957C230.1 232.1 230.124 232.292 230.029 232.532C229.6 233.346 228.862 234.376 227.814 235.622C226.814 236.82 225.67 238.042 224.384 239.287C223.146 240.485 221.931 241.515 220.74 242.378C220.121 242.857 219.335 243.264 218.382 243.599C217.477 243.983 216.548 244.174 215.596 244.174Z" fill="#080808"/>
<path d="M225.212 269.832C224.64 269.688 224.14 269.544 223.712 269.4C222.806 268.921 222.163 268.37 221.782 267.747C221.401 267.172 221.211 266.55 221.211 265.879C221.211 264.777 221.592 263.579 222.354 262.285C223.068 261.04 224.021 259.746 225.212 258.404C226.403 256.967 227.903 255.506 229.713 254.02C231.571 252.535 233.5 251.098 235.501 249.708C237.502 248.367 239.264 247.193 240.788 246.187C241.598 244.51 242.432 242.713 243.289 240.797C244.194 238.88 245.052 237.035 245.862 235.263C246.671 233.442 247.362 231.789 247.934 230.304C248.553 228.818 249.005 227.669 249.291 226.854C248.529 227.764 247.648 228.914 246.647 230.304C245.647 231.645 244.552 233.083 243.361 234.616C242.17 236.101 240.931 237.515 239.645 238.856C238.407 240.198 237.121 241.3 235.787 242.162C234.453 242.977 233.143 243.384 231.857 243.384C229.952 243.384 228.618 242.905 227.856 241.947C227.141 240.94 226.784 239.766 226.784 238.425C226.784 237.467 226.903 236.508 227.141 235.55C227.427 234.592 227.784 233.706 228.213 232.891C228.499 232.316 228.951 231.549 229.571 230.591C230.19 229.633 230.904 228.651 231.714 227.645C232.524 226.638 233.334 225.8 234.143 225.129C235.001 224.458 235.811 224.123 236.573 224.123C237.478 224.123 238.169 224.458 238.645 225.129C239.121 225.752 239.169 226.183 238.788 226.423C238.026 226.95 237.073 227.764 235.93 228.866C234.834 229.92 233.739 231.142 232.643 232.532C232.357 232.915 232 233.514 231.571 234.328C231.19 235.143 230.833 236.029 230.499 236.988C230.166 237.898 229.999 238.736 229.999 239.503C229.999 239.838 230.047 240.174 230.142 240.509C230.237 240.797 230.404 241.012 230.642 241.156C231.023 241.443 231.452 241.587 231.928 241.587C232.595 241.587 233.334 241.372 234.143 240.94C235.001 240.509 235.811 239.958 236.573 239.287C239.24 236.7 241.622 233.993 243.718 231.166C245.814 228.339 248.029 225.536 250.363 222.758C250.506 222.278 250.911 222.039 251.578 222.039C252.34 222.039 253.126 222.278 253.936 222.758C254.793 223.189 255.15 223.548 255.007 223.836C254.579 224.794 254.007 226.063 253.293 227.645C252.626 229.226 251.887 230.927 251.077 232.747C250.268 234.568 249.458 236.389 248.648 238.209C247.838 239.982 247.1 241.587 246.433 243.025C247.005 242.737 248.029 242.018 249.506 240.868C250.982 239.719 252.602 238.329 254.364 236.7C256.127 235.023 257.723 233.298 259.152 231.526C259.437 231.238 259.652 231.094 259.795 231.094C260.08 231.094 260.223 231.286 260.223 231.669C260.223 232.005 260.08 232.388 259.795 232.819C259.08 233.777 258.08 234.903 256.794 236.197C255.555 237.491 254.198 238.808 252.721 240.15C251.292 241.443 249.887 242.617 248.505 243.671C247.124 244.773 245.933 245.612 244.933 246.187C243.456 249.349 242.027 252.32 240.646 255.098C239.264 257.925 238.002 260.201 236.859 261.926C236.096 263.124 235.168 264.346 234.072 265.591C232.976 266.837 231.786 267.867 230.499 268.682C229.213 269.544 227.856 269.975 226.427 269.975C226.236 269.975 226.046 269.951 225.855 269.903C225.665 269.903 225.45 269.88 225.212 269.832ZM225.426 268.25C225.807 268.25 226.26 268.131 226.784 267.891C227.356 267.652 227.951 267.268 228.57 266.741C230.38 265.256 231.905 263.507 233.143 261.495C234.382 259.53 235.477 257.446 236.43 255.242C237.43 253.038 238.431 250.93 239.431 248.918C237.573 250.307 235.477 251.936 233.143 253.805C230.809 255.721 228.689 257.614 226.784 259.482C225.641 260.632 224.807 261.758 224.283 262.86C223.759 264.01 223.497 265.016 223.497 265.879C223.497 267.46 224.14 268.25 225.426 268.25Z" fill="#080808"/>
</svg>
