<svg width="310" height="246" viewBox="0 0 310 246" fill="none" xmlns="http://www.w3.org/2000/svg">
<path d="M8.65396 28.9981V7.09752H0V2.00795H23.5666V7.09752H14.9126V28.9981H8.65396Z" fill="white"/>
<path d="M31.8128 10.9918C33.2809 8.98683 35.7534 7.94579 38.96 7.94579V13.498C38.4578 13.4595 38.0715 13.4209 37.6079 13.4209C34.2854 13.4209 32.0832 15.2331 32.0832 19.2045V28.9981H26.0564V8.25424H31.8128V10.9918Z" fill="white"/>
<path d="M50.814 7.94579C57.1499 7.94579 60.8201 10.8761 60.8201 17.161V28.9981H55.1796V26.4148C54.0592 28.3041 51.8957 29.3066 48.8436 29.3066C43.9758 29.3066 41.0783 26.6076 41.0783 23.0217C41.0783 19.3588 43.6667 16.814 50.0027 16.814H54.7932C54.7932 14.2306 53.2479 12.7269 50.0027 12.7269C47.8005 12.7269 45.5211 13.4595 44.0144 14.6548L41.8509 10.452C44.1303 8.8326 47.4915 7.94579 50.814 7.94579ZM50.3504 25.258C52.3593 25.258 54.0978 24.3327 54.7932 22.4434V20.3227H50.6594C47.8392 20.3227 46.9506 21.3638 46.9506 22.7518C46.9506 24.2556 48.2255 25.258 50.3504 25.258Z" fill="white"/>
<path d="M78.9079 7.94579C83.8144 7.94579 87.5233 10.799 87.5233 17.1224V28.9981H81.4964V18.0478C81.4964 14.6933 79.9511 13.151 77.2853 13.151C74.3878 13.151 72.3016 14.9247 72.3016 18.7418V28.9981H66.2747V8.25424H72.0311V10.6834C73.6538 8.90972 76.0877 7.94579 78.9079 7.94579Z" fill="white"/>
<path d="M99.979 29.3066C96.4634 29.3066 92.9091 28.3426 90.9774 27.0702L92.9863 22.7518C94.8408 23.9471 97.661 24.7568 100.211 24.7568C102.992 24.7568 104.036 24.0242 104.036 22.8675C104.036 19.4744 91.4796 22.9446 91.4796 14.6548C91.4796 10.7219 95.0339 7.94579 101.099 7.94579C103.958 7.94579 107.126 8.60126 109.097 9.75798L107.088 14.0379C105.04 12.8811 102.992 12.4956 101.099 12.4956C98.3951 12.4956 97.236 13.3438 97.236 14.4234C97.236 17.9707 109.792 14.5391 109.792 22.7133C109.792 26.569 106.199 29.3066 99.979 29.3066Z" fill="white"/>
<path d="M120.117 7.83011V8.71693H125.448V13.3438H120.271V28.9981H114.245V13.3438H111.038V8.71693H114.245V7.79156C114.245 3.12611 117.103 0.0800781 122.28 0.0800781C123.98 0.0800781 125.757 0.427095 126.878 1.19824L125.294 5.55523C124.637 5.09254 123.787 4.82264 122.86 4.82264C121.083 4.82264 120.117 5.78657 120.117 7.83011Z" fill="white"/>
<path d="M138.077 29.3066C131.471 29.3066 126.641 24.8725 126.641 18.6262C126.641 12.3799 131.471 7.94579 138.077 7.94579C144.683 7.94579 149.474 12.3799 149.474 18.6262C149.474 24.8725 144.683 29.3066 138.077 29.3066ZM138.077 24.3712C141.09 24.3712 143.37 22.212 143.37 18.6262C143.37 15.0403 141.09 12.8811 138.077 12.8811C135.064 12.8811 132.746 15.0403 132.746 18.6262C132.746 22.212 135.064 24.3712 138.077 24.3712Z" fill="white"/>
<path d="M159.259 10.9918C160.727 8.98683 163.2 7.94579 166.406 7.94579V13.498C165.904 13.4595 165.518 13.4209 165.054 13.4209C161.731 13.4209 159.529 15.2331 159.529 19.2045V28.9981H153.503V8.25424H159.259V10.9918Z" fill="white"/>
<path d="M196.608 7.94579C201.554 7.94579 205.108 10.799 205.108 17.1224V28.9981H199.081V18.0478C199.081 14.6933 197.574 13.151 195.14 13.151C192.436 13.151 190.543 14.8861 190.543 18.5876V28.9981H184.516V18.0478C184.516 14.6933 183.087 13.151 180.575 13.151C177.91 13.151 176.017 14.8861 176.017 18.5876V28.9981H169.99V8.25424H175.746V10.6448C177.292 8.87116 179.61 7.94579 182.275 7.94579C185.173 7.94579 187.645 9.06395 189.113 11.3388C190.775 9.21818 193.479 7.94579 196.608 7.94579Z" fill="white"/>
<path d="M245.365 2.00795L234.857 19.4359V28.9981H228.598V19.3588L218.129 2.00795H224.774L231.998 13.9993L239.223 2.00795H245.365Z" fill="white"/>
<path d="M255.148 29.3066C248.542 29.3066 243.712 24.8725 243.712 18.6262C243.712 12.3799 248.542 7.94579 255.148 7.94579C261.754 7.94579 266.545 12.3799 266.545 18.6262C266.545 24.8725 261.754 29.3066 255.148 29.3066ZM255.148 24.3712C258.161 24.3712 260.441 22.212 260.441 18.6262C260.441 15.0403 258.161 12.8811 255.148 12.8811C252.134 12.8811 249.816 15.0403 249.816 18.6262C249.816 22.212 252.134 24.3712 255.148 24.3712Z" fill="white"/>
<path d="M285.486 8.25424H291.513V28.9981H285.795V26.5304C284.211 28.3426 281.893 29.3066 279.343 29.3066C274.128 29.3066 270.457 26.3762 270.457 19.9757V8.25424H276.484V19.0889C276.484 22.559 278.03 24.1013 280.695 24.1013C283.477 24.1013 285.486 22.3277 285.486 18.5105V8.25424Z" fill="white"/>
<path d="M302.853 10.9918C304.321 8.98683 306.793 7.94579 310 7.94579V13.498C309.498 13.4595 309.111 13.4209 308.648 13.4209C305.325 13.4209 303.123 15.2331 303.123 19.2045V28.9981H297.096V8.25424H302.853V10.9918Z" fill="white"/>
<path d="M121.498 132.682C119.257 132.682 117.75 131.217 117.75 129.328C117.75 127.438 119.257 125.973 121.498 125.973C123.739 125.973 125.245 127.361 125.245 129.212C125.245 131.217 123.739 132.682 121.498 132.682ZM118.484 156.318V135.574H124.511V156.318H118.484Z" fill="white"/>
<path d="M142.738 135.265C147.644 135.265 151.353 138.119 151.353 144.442V156.318H145.326V145.367C145.326 142.013 143.781 140.471 141.115 140.471C138.218 140.471 136.132 142.244 136.132 146.062V156.318H130.105V135.574H135.861V138.003C137.484 136.229 139.918 135.265 142.738 135.265Z" fill="white"/>
<path d="M168.6 151.074L170.222 155.315C168.986 156.202 167.17 156.626 165.316 156.626C160.409 156.626 157.55 154.12 157.55 149.185V140.663H154.344V136.037H157.55V130.986H163.577V136.037H168.754V140.663H163.577V149.108C163.577 150.881 164.543 151.845 166.166 151.845C167.054 151.845 167.943 151.575 168.6 151.074Z" fill="white"/>
<path d="M182.854 156.626C176.248 156.626 171.419 152.192 171.419 145.946C171.419 139.7 176.248 135.265 182.854 135.265C189.461 135.265 194.251 139.7 194.251 145.946C194.251 152.192 189.461 156.626 182.854 156.626ZM182.854 151.691C185.868 151.691 188.147 149.532 188.147 145.946C188.147 142.36 185.868 140.201 182.854 140.201C179.841 140.201 177.523 142.36 177.523 145.946C177.523 149.532 179.841 151.691 182.854 151.691Z" fill="white"/>
<path d="M55.1929 53.0965C55.1929 46.4419 60.5981 41.0473 67.2659 41.0473H244.337C251.005 41.0473 256.41 46.4419 256.41 53.0965V100.088C256.41 106.743 251.005 112.137 244.337 112.137H67.2659C60.5981 112.137 55.1929 106.743 55.1929 100.088V53.0965Z" fill="#65FE08"/>
<path d="M101.087 94.1761C98.812 94.1761 97.2237 93.7263 96.3222 92.8266C95.4208 91.9698 94.97 90.8345 94.97 89.4207C94.97 88.0926 95.2705 86.5932 95.8715 84.9224C96.7729 82.3947 97.8032 79.7814 98.9622 77.0824C100.164 74.3405 101.302 71.6629 102.375 69.0496C103.319 66.8218 104.264 64.5298 105.208 62.1735C106.152 59.8172 106.796 57.7823 107.14 56.0686C105.251 56.0686 103.319 56.2185 101.345 56.5184C99.4129 56.8183 97.61 57.2682 95.9359 57.868C94.2617 58.4677 92.9096 59.2389 91.8793 60.1814C90.892 61.1239 90.3984 62.2592 90.3984 63.5873C90.3984 64.4441 90.6345 65.151 91.1067 65.7079C91.6218 66.222 92.1798 66.629 92.7808 66.9289C93.3818 67.2288 93.8539 67.4859 94.1974 67.7001C94.5408 67.9143 94.7125 68.0857 94.7125 68.2142C94.7125 68.2999 94.6266 68.3427 94.4549 68.3427C94.1115 68.3427 93.4891 68.1285 92.5876 67.7001C91.7291 67.2288 90.935 66.5862 90.2052 65.7722C89.4755 64.9582 89.0891 64.0157 89.0462 62.9447C89.0462 62.859 89.0033 62.7305 88.9174 62.5591C88.8316 62.3877 88.7886 62.2378 88.7886 62.1093C88.7028 60.4813 89.1106 59.1104 90.012 57.9965C90.9564 56.8826 92.2227 55.9829 93.811 55.2975C95.3993 54.5691 97.1593 54.055 99.091 53.7552C101.023 53.4124 102.976 53.2411 104.95 53.2411C105.337 53.2411 105.723 53.2411 106.109 53.2411C106.496 53.2411 106.882 53.2625 107.268 53.3053C107.226 53.0054 107.118 52.7484 106.947 52.5342C106.861 52.3628 106.818 52.2343 106.818 52.1486C106.818 51.8059 107.011 51.6345 107.397 51.6345C107.826 51.6345 108.234 51.9558 108.621 52.5984C108.792 52.8983 108.9 53.1982 108.943 53.4981C111.389 53.7552 113.428 54.2907 115.06 55.1047C115.403 55.2332 115.789 55.5117 116.219 55.9401C116.648 56.3257 116.863 56.647 116.863 56.904C116.863 57.1182 116.691 57.2253 116.347 57.2253C116.176 57.2253 115.961 57.2039 115.703 57.1611C115.446 57.1182 115.145 57.0325 114.802 56.904C113.257 56.4328 111.346 56.1543 109.071 56.0686C108.986 57.9108 108.621 60.0957 107.977 62.6234C107.333 65.1082 106.496 67.5073 105.466 69.8207C104.135 72.9053 102.847 76.0756 101.602 79.3316C100.4 82.5447 99.6705 85.5222 99.4129 88.264C99.37 88.4354 99.3485 88.6068 99.3485 88.7781C99.3485 88.9495 99.3485 89.1208 99.3485 89.2922C99.3485 90.4489 99.5846 91.2843 100.057 91.7984C100.529 92.3125 101.151 92.5696 101.924 92.5696C103.126 92.5696 104.564 92.0983 106.238 91.1558C107.912 90.2561 109.544 89.2065 111.132 88.007C114.051 85.822 116.541 83.4658 118.601 80.9381C120.704 78.4105 122.722 75.6258 124.654 72.584C126.414 69.7993 128.088 67.0146 129.676 64.2299C131.307 61.4452 133.175 58.8105 135.278 56.3257C135.793 55.6402 136.501 54.9333 137.403 54.205C138.304 53.4767 139.292 52.8555 140.365 52.3414C141.481 51.8273 142.575 51.5702 143.649 51.5702C143.992 51.5702 144.357 51.6131 144.743 51.6988C145.13 51.7845 145.473 51.9344 145.773 52.1486C146.074 52.32 146.16 52.4913 146.031 52.6627C145.945 52.7912 145.859 52.8555 145.773 52.8555C145.645 52.8555 145.516 52.8555 145.387 52.8555C145.258 52.8126 145.151 52.7912 145.065 52.7912C144.121 52.7912 142.983 53.4124 141.652 54.6548C140.365 55.8972 138.905 57.5681 137.274 59.6673C135.643 61.7237 133.861 64.0371 131.93 66.6076C130.041 69.1781 128.045 71.8129 125.941 74.5119C123.752 77.3394 121.477 80.0813 119.116 82.7375C116.798 85.3508 114.437 87.6 112.033 89.485C110.187 90.9416 108.342 92.0769 106.496 92.8909C104.693 93.7477 102.89 94.1761 101.087 94.1761Z" fill="#080808"/>
<path d="M139.739 68.0857C139.181 68.0857 138.601 68.0428 138 67.9571C137.399 67.8286 137.099 67.4216 137.099 66.7361C137.099 66.6076 137.378 66.3077 137.936 65.8365C138.537 65.3652 139.138 64.894 139.739 64.4227C140.383 63.9086 140.769 63.6087 140.898 63.523C141.628 62.9232 142.078 62.6234 142.25 62.6234C142.465 62.6234 142.465 62.9018 142.25 63.4588C142.035 64.0157 141.928 64.5084 141.928 64.9368C141.928 65.151 141.799 65.5152 141.542 66.0293C141.284 66.5434 140.984 67.0146 140.64 67.443C140.297 67.8714 139.996 68.0857 139.739 68.0857ZM132.72 91.0916C131.948 91.0916 131.239 90.9202 130.596 90.5775C129.995 90.2347 129.544 89.5921 129.243 88.6496C129.2 88.5211 129.158 88.3925 129.115 88.264C129.115 88.1355 129.115 87.9855 129.115 87.8142C129.115 86.9573 129.308 85.8863 129.694 84.6011C130.08 83.3158 130.553 82.0734 131.111 80.8738C130.853 81.2166 130.553 81.645 130.209 82.1591C129.866 82.6303 129.372 83.2516 128.728 84.0227C128.557 84.1941 128.363 84.2797 128.149 84.2797C127.848 84.2797 127.698 84.1084 127.698 83.7657C127.698 83.5086 127.784 83.2944 127.956 83.123C129.072 81.7093 130.059 80.4454 130.918 79.3316C131.819 78.2177 132.484 77.2752 132.914 76.504C132.914 76.4612 132.892 76.4398 132.849 76.4398C132.849 76.3969 132.849 76.3541 132.849 76.3112C132.849 76.1827 132.914 75.9899 133.042 75.7329C133.386 74.7047 133.729 73.8478 134.073 73.1624C134.459 72.4341 134.867 72.0271 135.296 71.9414C135.382 71.9414 135.468 71.9414 135.554 71.9414C135.639 71.8985 135.725 71.8771 135.811 71.8771C136.283 71.8771 136.713 71.9842 137.099 72.1984C137.485 72.4126 137.678 72.734 137.678 73.1624C137.678 73.548 137.528 74.0192 137.228 74.5761C136.97 75.1331 136.627 75.8186 136.197 76.6325C135.253 78.6032 134.395 80.4026 133.622 82.0306C132.892 83.6157 132.484 84.9224 132.398 85.9506C132.356 86.1219 132.334 86.2933 132.334 86.4647C132.334 86.5932 132.334 86.7431 132.334 86.9145C132.334 88.6282 132.892 89.485 134.008 89.485C134.695 89.485 135.575 89.1208 136.648 88.3925C137.721 87.6214 138.816 86.7003 139.932 85.6293C141.048 84.5154 142.057 83.4658 142.958 82.4804C143.903 81.4522 144.547 80.6811 144.89 80.167C145.019 80.0384 145.148 79.9742 145.276 79.9742C145.448 79.9742 145.577 80.0384 145.663 80.167C145.792 80.2955 145.813 80.4669 145.727 80.6811C145.341 81.4094 144.675 82.3305 143.731 83.4443C142.83 84.5154 141.799 85.6078 140.64 86.7217C139.524 87.7928 138.43 88.7139 137.357 89.485C136.798 89.9134 136.09 90.2776 135.232 90.5775C134.416 90.9202 133.579 91.0916 132.72 91.0916Z" fill="#080808"/>
<path d="M144.799 93.662C144.327 93.662 143.855 93.5978 143.382 93.4693C142.91 93.3407 142.567 93.0837 142.352 92.6981C142.181 92.3554 142.202 91.927 142.417 91.4129C142.631 90.9416 142.932 90.5132 143.318 90.1276C143.661 89.7849 144.091 89.4422 144.606 89.0994C145.164 88.7567 145.743 88.4782 146.344 88.264H146.473C146.688 88.264 146.795 88.3497 146.795 88.5211C146.795 88.6496 146.709 88.7781 146.538 88.9066C145.765 89.2922 145.164 89.7635 144.735 90.3204C144.434 90.6631 144.284 91.0273 144.284 91.4129C144.284 92.0983 144.692 92.4411 145.507 92.4411C146.409 92.4411 147.375 92.1626 148.405 91.6057C149.478 91.0916 150.487 90.4061 151.431 89.5493C152.418 88.6496 153.213 87.7071 153.814 86.7217C154.415 85.7364 154.715 84.7939 154.715 83.8942C154.715 83.2944 154.393 82.7589 153.749 82.2876C153.105 81.7735 152.397 81.3237 151.624 80.9381C150.852 80.5097 150.272 80.167 149.886 79.9099C149.414 79.5672 148.984 79.2245 148.598 78.8817C148.212 78.4961 147.911 78.0891 147.697 77.6607C147.353 78.2605 146.902 78.9888 146.344 79.8457C145.829 80.6596 145.207 81.5165 144.477 82.4161C144.22 82.6732 143.962 82.8017 143.704 82.8017C143.447 82.8017 143.318 82.6946 143.318 82.4804C143.318 82.3519 143.425 82.1377 143.64 81.8378C144.799 80.4669 145.658 79.203 146.216 78.0463C146.774 76.8896 147.16 76.0113 147.375 75.4116C147.546 74.1692 148.126 72.991 149.113 71.8771C150.1 70.7633 151.302 69.7993 152.719 68.9853C154.136 68.1285 155.574 67.4645 157.033 66.9932C158.535 66.5219 159.866 66.2863 161.025 66.2863C162.184 66.2863 163.214 66.5005 164.116 66.9289C165.017 67.3573 165.468 68.0428 165.468 68.9853C165.468 69.4994 165.318 70.0564 165.017 70.6561C164.631 71.4701 163.987 72.1984 163.086 72.8411C163.043 72.8839 162.978 72.9053 162.893 72.9053C162.549 72.9053 162.377 72.7554 162.377 72.4555C162.377 72.2413 162.485 72.0271 162.699 71.8129C163.043 71.513 163.322 71.1488 163.536 70.7204C163.751 70.292 163.858 69.885 163.858 69.4994C163.858 68.7283 163.408 68.3427 162.506 68.3427C161.862 68.3427 161.111 68.4712 160.253 68.7283C159.394 68.9425 158.557 69.221 157.741 69.5637C156.969 69.8636 156.325 70.142 155.81 70.3991C154.736 70.9132 153.749 71.5558 152.848 72.327C151.946 73.0553 151.088 73.9764 150.272 75.0902C149.714 75.8186 149.435 76.504 149.435 77.1466C149.435 77.9178 149.95 78.6247 150.98 79.2673C152.054 79.8671 153.105 80.4454 154.136 81.0024C155.209 81.5593 156.11 82.1591 156.84 82.8017C157.57 83.4443 157.935 84.2155 157.935 85.1152C157.935 86.1005 157.312 87.2787 156.067 88.6496C155.295 89.5064 154.243 90.3204 152.912 91.0916C151.624 91.8627 150.251 92.4839 148.791 92.9552C147.332 93.4264 146.001 93.662 144.799 93.662Z" fill="#080808"/>
<path d="M173.317 68.0857C172.759 68.0857 172.18 68.0428 171.579 67.9571C170.978 67.8286 170.677 67.4216 170.677 66.7361C170.677 66.6076 170.956 66.3077 171.514 65.8365C172.115 65.3652 172.716 64.894 173.317 64.4227C173.961 63.9086 174.347 63.6087 174.476 63.523C175.206 62.9232 175.657 62.6234 175.828 62.6234C176.043 62.6234 176.043 62.9018 175.828 63.4588C175.614 64.0157 175.506 64.5084 175.506 64.9368C175.506 65.151 175.378 65.5152 175.12 66.0293C174.862 66.5434 174.562 67.0146 174.219 67.443C173.875 67.8714 173.575 68.0857 173.317 68.0857ZM166.299 91.0916C165.526 91.0916 164.818 90.9202 164.174 90.5775C163.573 90.2347 163.122 89.5921 162.822 88.6496C162.779 88.5211 162.736 88.3925 162.693 88.264C162.693 88.1355 162.693 87.9855 162.693 87.8142C162.693 86.9573 162.886 85.8863 163.272 84.6011C163.659 83.3158 164.131 82.0734 164.689 80.8738C164.431 81.2166 164.131 81.645 163.787 82.1591C163.444 82.6303 162.95 83.2516 162.306 84.0227C162.135 84.1941 161.942 84.2797 161.727 84.2797C161.426 84.2797 161.276 84.1084 161.276 83.7657C161.276 83.5086 161.362 83.2944 161.534 83.123C162.65 81.7093 163.637 80.4454 164.496 79.3316C165.397 78.2177 166.063 77.2752 166.492 76.504C166.492 76.4612 166.47 76.4398 166.427 76.4398C166.427 76.3969 166.427 76.3541 166.427 76.3112C166.427 76.1827 166.492 75.9899 166.621 75.7329C166.964 74.7047 167.307 73.8478 167.651 73.1624C168.037 72.4341 168.445 72.0271 168.874 71.9414C168.96 71.9414 169.046 71.9414 169.132 71.9414C169.218 71.8985 169.303 71.8771 169.389 71.8771C169.862 71.8771 170.291 71.9842 170.677 72.1984C171.063 72.4126 171.257 72.734 171.257 73.1624C171.257 73.548 171.106 74.0192 170.806 74.5761C170.548 75.1331 170.205 75.8186 169.776 76.6325C168.831 78.6032 167.973 80.4026 167.2 82.0306C166.47 83.6157 166.063 84.9224 165.977 85.9506C165.934 86.1219 165.912 86.2933 165.912 86.4647C165.912 86.5932 165.912 86.7431 165.912 86.9145C165.912 88.6282 166.47 89.485 167.586 89.485C168.273 89.485 169.153 89.1208 170.226 88.3925C171.3 87.6214 172.394 86.7003 173.51 85.6293C174.626 84.5154 175.635 83.4658 176.537 82.4804C177.481 81.4522 178.125 80.6811 178.468 80.167C178.597 80.0384 178.726 79.9742 178.855 79.9742C179.026 79.9742 179.155 80.0384 179.241 80.167C179.37 80.2955 179.391 80.4669 179.305 80.6811C178.919 81.4094 178.254 82.3305 177.309 83.4443C176.408 84.5154 175.378 85.6078 174.219 86.7217C173.102 87.7928 172.008 88.7139 170.935 89.485C170.377 89.9134 169.668 90.2776 168.81 90.5775C167.994 90.9202 167.157 91.0916 166.299 91.0916Z" fill="#080808"/>
<path d="M182.691 91.1558C181.489 91.1558 180.438 90.8773 179.536 90.3204C178.034 89.4207 177.283 87.7928 177.283 85.4365C177.283 84.4511 177.454 83.3158 177.798 82.0306C178.098 80.9595 178.635 79.8028 179.407 78.5604C180.18 77.2752 181.082 76.0542 182.112 74.8975C183.185 73.7407 184.344 72.7982 185.589 72.0699C186.834 71.3416 188.079 70.9775 189.323 70.9775C189.839 70.9775 190.289 71.0417 190.676 71.1702C191.191 71.3416 191.62 71.6629 191.963 72.1342C192.35 72.5626 192.543 73.1195 192.543 73.805C192.543 74.5333 192.35 74.9403 191.963 75.026C191.62 75.1117 191.448 75.026 191.448 74.7689C191.448 74.6833 191.448 74.5976 191.448 74.5119C191.491 74.4262 191.513 74.3619 191.513 74.3191C191.513 73.9764 191.405 73.6765 191.191 73.4194C191.019 73.1195 190.676 72.9696 190.161 72.9696C189.474 72.9696 188.615 73.3337 187.585 74.062C186.598 74.7904 185.567 75.7757 184.494 77.0181C183.464 78.2177 182.541 79.5458 181.725 81.0024C180.953 82.459 180.438 83.9156 180.18 85.3722C180.137 85.5864 180.094 85.8006 180.051 86.0148C180.051 86.1862 180.051 86.379 180.051 86.5932C180.051 87.5786 180.266 88.414 180.695 89.0994C181.167 89.742 181.897 90.0634 182.884 90.0634C184.086 90.0634 185.245 89.6135 186.362 88.7139C187.478 87.7713 188.465 86.6575 189.323 85.3722C190.225 84.087 190.89 82.9517 191.32 81.9663C191.663 81.1952 191.899 80.5311 192.028 79.9742C192.157 79.4172 192.221 78.946 192.221 78.5604C192.221 78.2177 192.178 77.9178 192.092 77.6607C192.049 77.4037 191.985 77.1895 191.899 77.0181C191.813 76.7611 191.77 76.5683 191.77 76.4398C191.77 76.097 191.899 75.8186 192.157 75.6043C192.457 75.3901 192.758 75.283 193.058 75.283C193.316 75.283 193.595 75.3687 193.895 75.5401C194.239 75.6258 194.711 75.69 195.312 75.7329C195.913 75.7757 196.557 75.7971 197.243 75.7971C197.973 75.7971 198.703 75.7757 199.433 75.7329C200.205 75.69 200.871 75.6043 201.429 75.4758C201.515 75.433 201.643 75.4116 201.815 75.4116C202.115 75.4116 202.266 75.4972 202.266 75.6686C202.266 75.84 202.115 75.9899 201.815 76.1184C200.313 76.8039 198.96 77.1681 197.758 77.2109C196.599 77.2537 195.591 77.2752 194.732 77.2752C194.818 78.3462 194.582 79.5029 194.024 80.7453C193.466 81.9449 192.886 83.0159 192.285 83.9584C191.556 85.0295 190.719 86.1219 189.774 87.2358C188.83 88.3497 187.778 89.2922 186.619 90.0634C185.46 90.7917 184.151 91.1558 182.691 91.1558Z" fill="#080808"/>
<path d="M197.539 91.2843C197.238 91.2843 197.152 91.1344 197.281 90.8345C197.41 90.5775 197.646 89.9991 197.989 89.0994C198.333 88.1569 198.719 87.043 199.148 85.7578C199.621 84.4725 200.093 83.1445 200.565 81.7735C201.037 80.4026 201.466 79.1173 201.853 77.9178C202.282 76.7182 202.625 75.7757 202.883 75.0902C202.969 74.8332 203.055 74.469 203.141 73.9978C203.226 73.4837 203.398 73.0339 203.656 72.6483C203.956 72.2199 204.45 72.0057 205.137 72.0057C206.424 72.0057 207.068 72.3055 207.068 72.9053C207.068 73.1195 206.961 73.4837 206.746 73.9978C206.231 75.1545 205.673 76.4826 205.072 77.982C204.471 79.4815 203.935 80.8953 203.462 82.2234C202.99 83.5514 202.625 84.5796 202.368 85.308C202.797 84.7082 203.484 83.8513 204.428 82.7375C205.416 81.6236 206.51 80.424 207.712 79.1388C208.914 77.8535 210.159 76.6111 211.447 75.4116C212.778 74.212 214.001 73.2481 215.117 72.5198C216.276 71.7486 217.263 71.363 218.079 71.363C219.109 71.363 219.624 71.92 219.624 73.0339C219.624 73.4194 219.517 73.9978 219.302 74.7689C218.916 75.84 218.422 76.8896 217.821 77.9178C217.22 78.9031 216.684 79.9528 216.212 81.0666C215.396 83.0802 214.924 84.7082 214.795 85.9506C214.752 86.1219 214.731 86.2933 214.731 86.4647C214.731 86.5932 214.731 86.7431 214.731 86.9145C214.731 88.6282 215.31 89.485 216.469 89.485C217.113 89.485 217.972 89.0994 219.045 88.3283C220.118 87.5571 221.213 86.636 222.329 85.565C223.488 84.494 224.518 83.4658 225.419 82.4804C226.321 81.4522 226.943 80.6811 227.287 80.167C227.415 80.0384 227.544 79.9742 227.673 79.9742C227.845 79.9742 227.973 80.0384 228.059 80.167C228.188 80.2955 228.21 80.4669 228.124 80.6811C227.737 81.4094 227.072 82.3305 226.128 83.4443C225.226 84.5154 224.217 85.6078 223.101 86.7217C221.985 87.7928 220.891 88.7139 219.817 89.485C219.174 89.9134 218.379 90.299 217.435 90.6417C216.491 90.9845 215.546 91.1344 214.602 91.0916C213.4 90.963 212.541 90.556 212.026 89.8706C211.511 89.1423 211.254 88.2854 211.254 87.3001C211.254 86.1434 211.468 84.9224 211.898 83.6371C212.37 82.309 212.885 81.0666 213.443 79.9099C214.001 78.7532 214.452 77.8749 214.795 77.2752C215.138 76.5897 215.31 76.0542 215.31 75.6686C215.31 75.3259 215.16 75.1545 214.859 75.1545C214.559 75.1545 214.108 75.3473 213.507 75.7329C212.906 76.1184 212.091 76.7825 211.06 77.725C210.116 78.539 209.107 79.61 208.034 80.9381C206.961 82.2234 205.909 83.5514 204.879 84.9224C203.892 86.2933 203.012 87.4715 202.239 88.4568C201.509 89.4422 200.994 90.0205 200.694 90.1919C200.479 90.3204 199.985 90.5346 199.213 90.8345C198.483 91.1344 197.925 91.2843 197.539 91.2843Z" fill="#080808"/>
<path d="M55.1929 186.039C55.1929 179.385 60.5981 173.99 67.2659 173.99H244.337C251.005 173.99 256.41 179.385 256.41 186.039V233.031C256.41 239.685 251.005 245.08 244.337 245.08H67.2659C60.5981 245.08 55.1929 239.685 55.1929 233.031V186.039Z" fill="#65FE08"/>
<path d="M120.721 229.464C120.292 229.464 119.863 229.443 119.433 229.4C119.004 229.357 118.553 229.293 118.081 229.207C115.162 228.65 112.522 227.686 110.161 226.316C107.8 224.945 105.675 223.338 103.787 221.496C101.941 219.696 100.245 217.79 98.6999 215.776C97.1974 213.763 95.8238 211.835 94.5789 209.993C93.3341 208.108 92.175 206.458 91.1019 205.045C91.016 204.83 90.9087 204.766 90.7799 204.852C90.6941 204.938 90.6512 204.98 90.6512 204.98C89.7068 206.78 88.8268 208.472 88.0112 210.057C87.2385 211.599 86.659 212.842 86.2727 213.784C85.9293 214.727 85.7575 215.391 85.7575 215.776C85.7575 216.376 85.9936 216.676 86.4658 216.676C87.0668 216.676 87.7107 216.269 88.3975 215.455C88.8697 214.898 89.299 214.384 89.6853 213.913C90.1146 213.399 90.4794 213.185 90.7799 213.27C90.8229 213.313 90.8443 213.377 90.8443 213.463C90.8443 213.677 90.6941 213.977 90.3936 214.363C90.0931 214.705 89.9214 214.898 89.8785 214.941C89.578 215.369 89.1702 215.948 88.6551 216.676C88.1829 217.404 87.6678 218.047 87.1097 218.604C86.5946 219.204 86.0366 219.504 85.4356 219.504C85.3497 219.504 85.0922 219.461 84.6629 219.375C84.2766 219.289 83.8902 219.182 83.5039 219.054C83.1605 218.925 82.9673 218.775 82.9244 218.604C82.8385 217.79 83.0317 216.655 83.5039 215.198C84.019 213.699 84.7058 212.049 85.5644 210.25C86.4229 208.451 87.3029 206.694 88.2043 204.98C87.5175 204.809 87.0239 204.659 86.7234 204.531C86.2941 204.231 86.0795 203.824 86.0795 203.31C86.0795 202.881 86.2512 202.496 86.5946 202.153C86.938 201.81 87.4531 201.639 88.14 201.639C88.3546 201.639 88.6122 201.682 88.9126 201.767C89.2131 201.853 89.4492 202.003 89.6209 202.217C90.3507 200.932 90.9946 199.754 91.5526 198.683C92.1536 197.612 92.5828 196.776 92.8404 196.176C93.098 195.705 93.2697 195.32 93.3555 195.02C93.4414 194.677 93.4843 194.42 93.4843 194.249C93.4843 193.992 93.4414 193.777 93.3555 193.606C93.4414 193.092 93.7419 192.406 94.257 191.55C94.815 190.693 95.5018 189.836 96.3174 188.979C97.133 188.122 98.013 187.415 98.9574 186.858C99.9018 186.259 100.782 185.959 101.597 185.959C101.855 185.959 102.241 186.044 102.756 186.216C103.314 186.344 103.83 186.559 104.302 186.858C104.817 187.158 105.139 187.587 105.268 188.144C105.311 188.272 105.332 188.401 105.332 188.529C105.332 188.658 105.289 188.722 105.203 188.722C105.117 188.722 104.989 188.701 104.817 188.658C104.688 188.572 104.581 188.529 104.495 188.529C103.293 188.529 101.941 189.258 100.438 190.714C98.9789 192.128 97.4765 193.949 95.9311 196.176C94.4287 198.404 93.0121 200.718 91.6814 203.117C91.896 203.16 92.1321 203.224 92.3897 203.31C92.6902 203.352 93.0336 203.374 93.4199 203.374C93.5916 203.374 93.7419 203.374 93.8706 203.374C94.0423 203.374 94.214 203.352 94.3857 203.31C97.133 203.01 99.9233 202.474 102.756 201.703C105.632 200.932 108.315 199.925 110.805 198.683C113.295 197.44 115.355 195.984 116.986 194.313C118.489 192.728 119.24 191.1 119.24 189.429C119.24 188.187 118.768 187.03 117.824 185.959C116.879 184.888 115.398 184.074 113.381 183.517C112.179 183.174 110.805 182.917 109.26 182.746C107.757 182.574 106.126 182.489 104.366 182.489C101.619 182.489 98.7857 182.724 95.8667 183.195C92.9906 183.667 90.2863 184.395 87.7536 185.38C85.221 186.323 83.0961 187.522 81.3791 188.979C79.662 190.436 78.6318 192.171 78.2883 194.184C78.1596 195.213 78.3527 196.027 78.8679 196.626C79.383 197.226 80.0054 197.697 80.7352 198.04C81.5078 198.34 82.1088 198.618 82.5381 198.875C82.8385 199.133 82.9888 199.347 82.9888 199.518C82.9888 199.818 82.7098 199.925 82.1517 199.839C81.5508 199.711 80.7995 199.411 79.8981 198.94C79.0396 198.468 78.2669 197.826 77.5801 197.012C76.9362 196.155 76.6142 195.17 76.6142 194.056C76.6142 193.884 76.6142 193.713 76.6142 193.542C76.6572 193.37 76.7001 193.199 76.743 193.028C76.743 192.985 76.7215 192.856 76.6786 192.642C76.6786 192.385 76.6786 192.171 76.6786 191.999C76.9362 190.671 77.5801 189.429 78.6103 188.272C79.6835 187.073 80.8854 186.023 82.2161 185.123C83.5898 184.181 84.8561 183.431 86.0151 182.874C88.0326 181.889 90.458 181.118 93.2911 180.561C96.1243 179.961 99.0862 179.661 102.177 179.661C104.066 179.661 105.933 179.79 107.779 180.047C109.668 180.304 111.492 180.711 113.252 181.268C115.699 182.082 117.587 183.345 118.918 185.059C120.292 186.73 120.914 188.486 120.785 190.329C120.657 192.085 120.034 193.67 118.918 195.084C117.845 196.498 116.45 197.74 114.733 198.811C113.059 199.839 111.191 200.739 109.131 201.51C107.113 202.239 105.074 202.838 103.014 203.31C101.34 203.652 99.5798 203.931 97.734 204.145C95.8882 204.359 94.1497 204.509 92.5184 204.595C94.3643 206.865 96.1887 209.157 97.9916 211.471C99.8374 213.742 101.791 215.884 103.851 217.897C105.954 219.911 108.251 221.624 110.741 223.038C113.23 224.495 116.042 225.523 119.176 226.123C119.82 226.251 120.485 226.316 121.172 226.316C122.288 226.316 123.383 226.144 124.456 225.801C125.572 225.459 126.495 224.923 127.224 224.195C127.954 223.467 128.319 222.503 128.319 221.303C128.319 221.089 128.298 220.875 128.255 220.66C128.255 220.446 128.233 220.232 128.19 220.018C128.19 219.932 128.169 219.868 128.126 219.825C128.126 219.782 128.126 219.739 128.126 219.696C128.126 219.311 128.276 219.118 128.577 219.118C129.006 219.118 129.285 219.439 129.414 220.082C129.542 220.725 129.607 221.324 129.607 221.881C129.607 222.524 129.542 223.124 129.414 223.681C129.328 224.238 129.199 224.752 129.027 225.223C128.641 226.423 127.654 227.429 126.065 228.243C124.52 229.057 122.739 229.464 120.721 229.464Z" fill="#080808"/>
<path d="M117.636 218.733C115.704 218.733 114.03 218.283 112.614 217.383C111.197 216.483 110.489 215.112 110.489 213.27C110.489 212.285 110.789 211.085 111.39 209.672C111.819 208.686 112.614 207.551 113.773 206.266C114.932 204.98 116.284 203.738 117.829 202.538C119.374 201.296 120.941 200.289 122.53 199.518C124.118 198.704 125.556 198.297 126.844 198.297C127.316 198.297 127.745 198.361 128.131 198.49C128.861 198.747 129.355 199.154 129.612 199.711C129.913 200.268 130.063 200.846 130.063 201.446C130.063 202.003 129.977 202.538 129.806 203.053C129.634 203.567 129.419 204.016 129.162 204.402C128.389 205.559 127.273 206.587 125.813 207.487C124.397 208.386 122.937 209.093 121.435 209.607C119.975 210.121 118.773 210.421 117.829 210.507H117.7C117.142 210.507 116.863 210.336 116.863 209.993C116.863 209.779 117.035 209.672 117.378 209.672C118.409 209.586 119.696 209.115 121.242 208.258C122.83 207.358 124.225 206.437 125.427 205.495C125.942 205.066 126.543 204.466 127.23 203.695C127.96 202.924 128.325 202.174 128.325 201.446C128.325 200.675 127.96 200.289 127.23 200.289C126.844 200.289 126.436 200.375 126.007 200.546C125.62 200.718 125.298 200.846 125.041 200.932C123.796 201.532 122.422 202.474 120.92 203.759C119.417 205.002 118.044 206.416 116.799 208.001C115.597 209.543 114.76 211.107 114.288 212.692C114.159 213.035 114.073 213.377 114.03 213.72C113.987 214.02 113.966 214.32 113.966 214.62C113.966 215.648 114.288 216.376 114.932 216.805C115.618 217.233 116.434 217.447 117.378 217.447C118.795 217.447 120.254 217.147 121.757 216.548C123.259 215.905 124.719 215.091 126.135 214.106C127.552 213.12 128.84 212.071 129.999 210.957C131.201 209.8 132.209 208.686 133.025 207.615C133.154 207.444 133.304 207.358 133.476 207.358C133.647 207.315 133.755 207.337 133.798 207.422C133.969 207.465 134.055 207.594 134.055 207.808C134.055 207.979 134.012 208.151 133.926 208.322C132.725 209.993 131.265 211.621 129.548 213.206C127.874 214.791 126.007 216.119 123.946 217.19C121.929 218.218 119.825 218.733 117.636 218.733Z" fill="#080808"/>
<path d="M150.303 218.411C149.573 218.411 148.887 218.24 148.243 217.897C147.642 217.554 147.191 216.912 146.89 215.969C146.762 215.584 146.697 215.048 146.697 214.363C146.697 213.42 146.826 212.371 147.084 211.214C147.341 210.057 147.62 209.072 147.921 208.258C147.706 208.343 147.298 208.729 146.697 209.415C146.139 210.057 145.431 210.85 144.572 211.792C143.757 212.692 142.834 213.613 141.804 214.555C140.816 215.455 139.786 216.205 138.713 216.805C137.64 217.404 136.588 217.704 135.558 217.704C134.871 217.704 134.141 217.512 133.369 217.126C132.596 216.698 131.974 216.162 131.501 215.519C130.857 214.663 130.535 213.784 130.535 212.885C130.535 211.728 130.922 210.528 131.694 209.286C132.51 208.044 133.54 206.844 134.785 205.687C136.073 204.488 137.425 203.417 138.842 202.474C140.301 201.489 141.675 200.675 142.963 200.032C144.293 199.347 145.367 198.897 146.182 198.683C147.041 198.426 148.007 198.297 149.08 198.297C149.681 198.297 150.303 198.383 150.947 198.554C151.591 198.683 152.127 198.918 152.557 199.261C152.9 199.432 153.179 199.668 153.394 199.968C153.608 200.268 153.716 200.589 153.716 200.932C153.716 201.275 153.565 201.382 153.265 201.253C152.922 200.739 152.449 200.418 151.848 200.289C151.29 200.118 150.711 200.032 150.11 200.032C148.393 200.032 146.504 200.589 144.444 201.703C142.383 202.817 140.537 204.124 138.906 205.623C138.391 206.051 137.683 206.801 136.781 207.872C135.923 208.9 135.129 210.036 134.399 211.278C133.669 212.521 133.304 213.656 133.304 214.684C133.304 215.241 133.454 215.734 133.755 216.162C133.927 216.462 134.206 216.612 134.592 216.612C135.193 216.612 135.987 216.291 136.974 215.648C138.005 215.005 139.056 214.234 140.13 213.335C141.203 212.392 142.169 211.492 143.027 210.635C143.929 209.779 144.572 209.157 144.959 208.772C145.173 208.558 145.581 208.129 146.182 207.487C146.826 206.801 147.513 206.073 148.243 205.302C148.972 204.531 149.616 203.867 150.174 203.31C150.775 202.753 151.162 202.474 151.333 202.474C151.548 202.474 151.891 202.538 152.364 202.667C152.879 202.753 153.308 202.903 153.651 203.117C153.995 203.331 154.059 203.609 153.845 203.952C152.728 205.58 151.827 207.294 151.14 209.093C150.496 210.85 150.11 212.242 149.981 213.27C149.938 213.442 149.917 213.613 149.917 213.784C149.917 213.913 149.917 214.063 149.917 214.234C149.917 215.948 150.518 216.805 151.72 216.805C152.364 216.805 153.222 216.419 154.295 215.648C155.368 214.877 156.463 213.956 157.579 212.885C158.695 211.814 159.704 210.785 160.605 209.8C161.55 208.772 162.194 208.001 162.537 207.487C162.666 207.358 162.795 207.294 162.923 207.294C163.095 207.294 163.245 207.38 163.374 207.551C163.503 207.679 163.503 207.851 163.374 208.065C162.902 208.836 162.215 209.757 161.314 210.828C160.412 211.899 159.403 212.97 158.287 214.041C157.171 215.112 156.077 216.034 155.004 216.805C154.445 217.233 153.737 217.597 152.879 217.897C152.02 218.24 151.162 218.411 150.303 218.411Z" fill="#080808"/>
<path d="M165.636 218.411C163.833 218.411 162.567 217.961 161.837 217.062C161.15 216.162 160.807 215.048 160.807 213.72C160.807 212.478 161.086 210.914 161.644 209.029C162.245 207.144 163.017 205.109 163.962 202.924C164.906 200.739 165.915 198.576 166.988 196.434C168.104 194.249 169.199 192.256 170.272 190.457C171.388 188.615 172.354 187.137 173.169 186.023C173.985 184.952 174.865 183.881 175.809 182.81C176.754 181.739 177.805 180.839 178.965 180.111C180.124 179.383 181.433 179.018 182.892 179.018C183.88 179.018 184.717 179.297 185.403 179.854C186.133 180.368 186.498 181.161 186.498 182.232C186.498 182.66 186.412 183.153 186.241 183.71C186.112 184.267 185.876 184.845 185.532 185.445C182.914 189.986 179.78 194.184 176.131 198.04C172.526 201.896 168.705 205.473 164.67 208.772C164.498 209.414 164.327 209.993 164.155 210.507C164.026 211.021 163.919 211.428 163.833 211.728C163.79 211.942 163.769 212.178 163.769 212.435C163.769 212.649 163.769 212.863 163.769 213.077C163.769 214.106 163.94 215.005 164.284 215.776C164.627 216.548 165.207 216.933 166.022 216.933C166.795 216.933 167.739 216.569 168.855 215.841C170.014 215.07 171.173 214.148 172.332 213.077C173.491 211.964 174.543 210.893 175.487 209.864C176.432 208.836 177.097 208.044 177.484 207.487C177.612 207.358 177.741 207.294 177.87 207.294C178.042 207.294 178.17 207.38 178.256 207.551C178.385 207.722 178.385 207.936 178.256 208.194C177.827 208.922 177.14 209.822 176.196 210.893C175.251 211.964 174.2 213.056 173.041 214.17C171.882 215.241 170.766 216.183 169.692 216.997C168.362 217.94 167.01 218.411 165.636 218.411ZM165.571 206.201C167.203 205.088 168.898 203.652 170.658 201.896C172.418 200.096 174.135 198.147 175.809 196.048C177.526 193.949 179.072 191.871 180.445 189.814C181.862 187.758 183 185.895 183.858 184.224C184.116 183.752 184.287 183.345 184.373 183.003C184.502 182.617 184.566 182.274 184.566 181.975C184.566 181.161 184.223 180.754 183.536 180.754C182.935 180.754 182.184 181.075 181.283 181.717C178.965 183.517 176.818 185.83 174.844 188.658C172.869 191.442 171.109 194.377 169.564 197.462C168.018 200.546 166.688 203.46 165.571 206.201Z" fill="#080808"/>
<path d="M186.78 195.405C186.222 195.405 185.642 195.362 185.041 195.277C184.44 195.148 184.14 194.741 184.14 194.056C184.14 193.927 184.419 193.627 184.977 193.156C185.578 192.685 186.179 192.214 186.78 191.742C187.424 191.228 187.81 190.928 187.939 190.843C188.669 190.243 189.119 189.943 189.291 189.943C189.506 189.943 189.506 190.221 189.291 190.778C189.076 191.335 188.969 191.828 188.969 192.256C188.969 192.471 188.84 192.835 188.583 193.349C188.325 193.863 188.025 194.334 187.681 194.763C187.338 195.191 187.037 195.405 186.78 195.405ZM179.761 218.411C178.989 218.411 178.28 218.24 177.636 217.897C177.035 217.554 176.585 216.912 176.284 215.969C176.241 215.841 176.198 215.712 176.156 215.584C176.156 215.455 176.156 215.305 176.156 215.134C176.156 214.277 176.349 213.206 176.735 211.921C177.121 210.635 177.594 209.393 178.152 208.194C177.894 208.536 177.594 208.965 177.25 209.479C176.907 209.95 176.413 210.571 175.769 211.342C175.597 211.514 175.404 211.599 175.19 211.599C174.889 211.599 174.739 211.428 174.739 211.085C174.739 210.828 174.825 210.614 174.996 210.443C176.113 209.029 177.1 207.765 177.958 206.651C178.86 205.537 179.525 204.595 179.954 203.824C179.954 203.781 179.933 203.759 179.89 203.759C179.89 203.717 179.89 203.674 179.89 203.631C179.89 203.502 179.954 203.31 180.083 203.053C180.427 202.024 180.77 201.168 181.114 200.482C181.5 199.754 181.908 199.347 182.337 199.261C182.423 199.261 182.509 199.261 182.594 199.261C182.68 199.218 182.766 199.197 182.852 199.197C183.324 199.197 183.753 199.304 184.14 199.518C184.526 199.732 184.719 200.054 184.719 200.482C184.719 200.868 184.569 201.339 184.269 201.896C184.011 202.453 183.668 203.138 183.238 203.952C182.294 205.923 181.435 207.722 180.663 209.35C179.933 210.935 179.525 212.242 179.439 213.27C179.396 213.442 179.375 213.613 179.375 213.784C179.375 213.913 179.375 214.063 179.375 214.234C179.375 215.948 179.933 216.805 181.049 216.805C181.736 216.805 182.616 216.441 183.689 215.712C184.762 214.941 185.857 214.02 186.973 212.949C188.089 211.835 189.098 210.785 189.999 209.8C190.944 208.772 191.588 208.001 191.931 207.487C192.06 207.358 192.189 207.294 192.317 207.294C192.489 207.294 192.618 207.358 192.704 207.487C192.832 207.615 192.854 207.787 192.768 208.001C192.382 208.729 191.716 209.65 190.772 210.764C189.87 211.835 188.84 212.928 187.681 214.041C186.565 215.112 185.471 216.034 184.397 216.805C183.839 217.233 183.131 217.597 182.273 217.897C181.457 218.24 180.62 218.411 179.761 218.411Z" fill="#080808"/>
<path d="M194.287 218.411C193.514 218.411 192.806 218.24 192.162 217.897C191.561 217.554 191.11 216.912 190.81 215.969C190.767 215.841 190.724 215.712 190.681 215.584C190.681 215.455 190.681 215.305 190.681 215.134C190.681 214.277 190.874 213.206 191.26 211.921C191.647 210.635 192.119 209.393 192.677 208.194C192.419 208.536 192.119 208.965 191.776 209.479C191.432 209.95 190.938 210.571 190.295 211.342C190.123 211.514 189.93 211.599 189.715 211.599C189.415 211.599 189.264 211.428 189.264 211.085C189.264 210.828 189.35 210.614 189.522 210.443C190.638 209.029 191.625 207.765 192.484 206.651C193.385 205.537 194.051 204.595 194.48 203.824C194.48 203.738 194.609 203.481 194.866 203.053C195.124 202.581 195.467 201.939 195.896 201.125C195.553 201.168 195.253 201.21 194.995 201.253C194.78 201.253 194.587 201.253 194.415 201.253C194.115 201.253 193.857 201.125 193.643 200.868C193.428 200.611 193.407 200.289 193.578 199.904C193.793 199.304 194.265 198.961 194.995 198.875C195.725 198.79 196.369 198.726 196.927 198.683C196.97 198.597 197.055 198.554 197.184 198.554C197.699 197.612 198.193 196.691 198.665 195.791C199.137 194.891 199.524 194.141 199.824 193.542C200.168 192.942 200.339 192.621 200.339 192.578C201.198 191.207 201.756 190.307 202.013 189.879C202.271 189.408 202.614 189.129 203.044 189.043C203.516 189.001 204.01 189.022 204.525 189.108C205.083 189.193 205.448 189.386 205.619 189.686C205.748 189.857 205.812 190.072 205.812 190.329C205.812 190.714 205.727 191.1 205.555 191.485C205.383 191.828 205.211 192.107 205.04 192.321C204.868 192.621 204.632 192.835 204.331 192.963C204.074 193.049 203.838 193.306 203.623 193.735C203.194 194.548 202.722 195.427 202.207 196.369C201.692 197.312 201.155 198.211 200.597 199.068L201.37 199.004C202.4 198.918 203.366 198.811 204.267 198.683C205.211 198.554 206.285 198.511 207.487 198.554C207.701 198.554 207.916 198.597 208.13 198.683C208.388 198.726 208.517 198.811 208.517 198.94C208.517 199.111 207.959 199.347 206.843 199.647C206.413 199.818 205.469 200.011 204.01 200.225C202.593 200.396 201.133 200.568 199.631 200.739C199.202 201.553 198.815 202.239 198.472 202.795C198.129 203.31 197.893 203.695 197.764 203.952C196.819 205.923 195.961 207.722 195.188 209.35C194.458 210.935 194.051 212.242 193.965 213.27C193.922 213.442 193.9 213.613 193.9 213.784C193.9 213.913 193.9 214.063 193.9 214.234C193.9 215.948 194.458 216.805 195.575 216.805C196.261 216.805 197.141 216.441 198.214 215.712C199.288 214.941 200.382 214.02 201.498 212.949C202.614 211.835 203.623 210.785 204.525 209.8C205.469 208.772 206.113 208.001 206.456 207.487C206.585 207.358 206.714 207.294 206.843 207.294C207.014 207.294 207.143 207.358 207.229 207.487C207.358 207.615 207.379 207.787 207.293 208.001C206.907 208.729 206.242 209.65 205.297 210.764C204.396 211.835 203.366 212.928 202.207 214.041C201.091 215.112 199.996 216.034 198.923 216.805C198.365 217.233 197.656 217.597 196.798 217.897C195.982 218.24 195.145 218.411 194.287 218.411Z" fill="#080808"/>
<path d="M202.953 241.353C202.438 241.224 201.987 241.096 201.6 240.967C200.785 240.539 200.205 240.046 199.862 239.489C199.519 238.975 199.347 238.418 199.347 237.818C199.347 236.833 199.69 235.762 200.377 234.605C201.021 233.491 201.879 232.335 202.953 231.135C204.026 229.85 205.378 228.543 207.009 227.215C208.683 225.887 210.422 224.602 212.225 223.359C214.028 222.16 215.616 221.11 216.99 220.211C217.719 218.711 218.471 217.105 219.243 215.391C220.059 213.677 220.831 212.028 221.561 210.443C222.291 208.815 222.913 207.337 223.429 206.009C223.987 204.681 224.394 203.652 224.652 202.924C223.965 203.738 223.171 204.766 222.27 206.009C221.368 207.208 220.381 208.493 219.308 209.864C218.234 211.192 217.118 212.456 215.959 213.656C214.843 214.855 213.684 215.841 212.482 216.612C211.28 217.34 210.1 217.704 208.941 217.704C207.224 217.704 206.022 217.276 205.335 216.419C204.691 215.519 204.369 214.47 204.369 213.27C204.369 212.413 204.477 211.557 204.691 210.7C204.949 209.843 205.271 209.05 205.657 208.322C205.915 207.808 206.322 207.122 206.88 206.266C207.438 205.409 208.082 204.531 208.812 203.631C209.542 202.731 210.272 201.982 211.001 201.382C211.774 200.782 212.504 200.482 213.191 200.482C214.006 200.482 214.629 200.782 215.058 201.382C215.487 201.939 215.53 202.324 215.187 202.538C214.5 203.01 213.641 203.738 212.611 204.723C211.624 205.666 210.636 206.758 209.649 208.001C209.392 208.343 209.07 208.879 208.683 209.607C208.34 210.336 208.018 211.128 207.717 211.985C207.417 212.799 207.267 213.549 207.267 214.234C207.267 214.534 207.31 214.834 207.396 215.134C207.481 215.391 207.632 215.584 207.846 215.712C208.19 215.969 208.576 216.098 209.005 216.098C209.606 216.098 210.272 215.905 211.001 215.519C211.774 215.134 212.504 214.641 213.191 214.041C215.594 211.728 217.741 209.307 219.63 206.78C221.518 204.252 223.514 201.746 225.618 199.261C225.747 198.833 226.111 198.618 226.712 198.618C227.399 198.618 228.108 198.833 228.837 199.261C229.61 199.647 229.932 199.968 229.803 200.225C229.417 201.082 228.902 202.217 228.258 203.631C227.657 205.045 226.991 206.566 226.262 208.194C225.532 209.822 224.802 211.449 224.072 213.077C223.343 214.663 222.677 216.098 222.076 217.383C222.591 217.126 223.514 216.483 224.845 215.455C226.176 214.427 227.635 213.185 229.224 211.728C230.812 210.229 232.25 208.686 233.538 207.101C233.795 206.844 233.988 206.715 234.117 206.715C234.375 206.715 234.504 206.887 234.504 207.23C234.504 207.529 234.375 207.872 234.117 208.258C233.473 209.115 232.572 210.121 231.413 211.278C230.297 212.435 229.073 213.613 227.743 214.813C226.455 215.969 225.189 217.019 223.944 217.961C222.699 218.947 221.626 219.696 220.724 220.211C219.393 223.038 218.106 225.694 216.861 228.179C215.616 230.707 214.478 232.742 213.448 234.284C212.761 235.355 211.924 236.448 210.937 237.561C209.95 238.675 208.876 239.596 207.717 240.325C206.558 241.096 205.335 241.481 204.047 241.481C203.876 241.481 203.704 241.46 203.532 241.417C203.36 241.417 203.167 241.396 202.953 241.353ZM203.146 239.939C203.489 239.939 203.897 239.832 204.369 239.618C204.884 239.404 205.421 239.061 205.979 238.59C207.61 237.262 208.984 235.698 210.1 233.898C211.216 232.142 212.203 230.278 213.062 228.308C213.963 226.337 214.865 224.452 215.766 222.653C214.092 223.895 212.203 225.352 210.1 227.022C207.997 228.736 206.086 230.428 204.369 232.099C203.339 233.127 202.588 234.134 202.116 235.119C201.643 236.148 201.407 237.047 201.407 237.818C201.407 239.232 201.987 239.939 203.146 239.939Z" fill="#080808"/>
</svg>
